<svg id="Capa_1" data-name="Capa 1" xmlns="http://www.w3.org/2000/svg" viewBox="0 0 453.55 419.74"><defs><style>.cls-1{fill:none;stroke:#000;stroke-miterlimit:10;}</style></defs><g id="Capa_2" data-name="Capa 2"><g id="Capa_1-2" data-name="Capa 1-2"><path class="cls-1" d="M78.74,70.07S87.54,38,101.31,51C112.54,61.64,97,83.91,93.62,90.22,88.9,99.1,81.2,115.67,87,125.41c0,0,24.93-15.88,11.13-38.54" transform="translate(0 0)"/><path class="cls-1" d="M79.55,67.7S70.75,99.82,57,86.78c-11.23-10.64,4.34-32.91,7.69-39.22,4.72-8.88,12.42-25.45,6.6-35.19,0,0-24.93,15.88-11.13,38.54" transform="translate(0 0)"/><path class="cls-1" d="M53.18,118.63S62,86.51,75.75,99.55c11.24,10.64-4.33,32.91-7.68,39.22-4.72,8.88-12.42,25.45-6.61,35.19,0,0,24.93-15.88,11.14-38.54" transform="translate(0 0)"/><path class="cls-1" d="M54,116.26s-8.8,32.12-22.57,19.08c-11.23-10.65,4.34-32.92,7.69-39.22,4.72-8.89,12.41-25.46,6.6-35.2,0,0-24.93,15.88-11.14,38.55" transform="translate(0 0)"/><path class="cls-1" d="M.48,54.05S9.29,21.93,23.05,35c11.23,10.64-4.34,32.91-7.69,39.22C10.64,83.07,3,99.65,8.76,109.39c0,0,24.93-15.88,11.14-38.55" transform="translate(0 0)"/><path class="cls-1" d="M26.78,168.06s8.8-32.12,22.57-19.08c11.23,10.64-4.34,32.91-7.69,39.22-4.72,8.88-12.42,25.45-6.6,35.19,0,0,24.93-15.88,11.13-38.54" transform="translate(0 0)"/><path class="cls-1" d="M27.59,165.69S18.79,197.81,5,184.76c-11.24-10.64,4.33-32.91,7.68-39.22,4.72-8.88,12.42-25.45,6.6-35.19,0,0-24.93,15.88-11.13,38.54" transform="translate(0 0)"/><path class="cls-1" d="M1.22,216.61S10,184.49,23.79,197.53c11.24,10.64-4.33,32.91-7.68,39.22-4.72,8.88-12.42,25.45-6.61,35.19,0,0,24.94-15.88,11.14-38.54" transform="translate(0 0)"/><path class="cls-1" d="M184.42,200.22s8.8-32.12,22.57-19.08c11.23,10.64-4.34,32.91-7.69,39.22-4.72,8.88-12.42,25.46-6.6,35.2,0,0,24.93-15.88,11.13-38.55" transform="translate(0 0)"/><path class="cls-1" d="M185.23,197.85s-8.8,32.12-22.56,19.08c-11.24-10.64,4.33-32.92,7.68-39.22,4.72-8.89,12.42-25.46,6.6-35.2,0,0-24.93,15.88-11.13,38.55" transform="translate(0 0)"/><path class="cls-1" d="M158.86,248.77s8.81-32.12,22.57-19.08c11.24,10.64-4.33,32.92-7.68,39.22-4.72,8.89-12.42,25.46-6.61,35.2,0,0,24.94-15.88,11.14-38.55" transform="translate(0 0)"/><path class="cls-1" d="M159.68,246.4s-8.8,32.12-22.57,19.08c-11.23-10.64,4.34-32.91,7.69-39.22,4.72-8.88,12.41-25.46,6.6-35.2,0,0-24.93,15.88-11.13,38.55" transform="translate(0 0)"/><path class="cls-1" d="M131.72,135.64s8.8-32.12,22.57-19.08c11.23,10.64-4.34,32.92-7.69,39.22-4.72,8.89-12.42,25.46-6.6,35.2,0,0,24.93-15.88,11.13-38.55" transform="translate(0 0)"/><path class="cls-1" d="M132.53,133.27s-8.8,32.12-22.57,19.08c-11.23-10.64,4.34-32.91,7.69-39.22,4.72-8.88,12.42-25.46,6.6-35.2,0,0-24.93,15.88-11.13,38.55" transform="translate(0 0)"/><path class="cls-1" d="M106.16,184.19s8.81-32.12,22.57-19.08c11.24,10.65-4.33,32.92-7.68,39.22-4.72,8.89-12.42,25.46-6.61,35.2,0,0,24.93-15.88,11.14-38.55" transform="translate(0 0)"/><path class="cls-1" d="M107,181.82s-8.8,32.12-22.57,19.08c-11.25-10.64,4.32-32.9,7.67-39.22,4.72-8.88,12.41-25.45,6.6-35.19,0,0-24.93,15.88-11.14,38.54" transform="translate(0 0)"/><path class="cls-1" d="M132.46,298.2s8.8-32.12,22.57-19.08c11.23,10.64-4.34,32.91-7.69,39.22-4.72,8.88-12.41,25.46-6.6,35.2,0,0,24.93-15.88,11.13-38.55" transform="translate(0 0)"/><path class="cls-1" d="M133.27,295.83s-8.8,32.12-22.56,19.08C99.47,304.27,115,282,118.39,275.69c4.72-8.89,12.42-25.46,6.6-35.2,0,0-24.93,15.88-11.13,38.55" transform="translate(0 0)"/><path class="cls-1" d="M106.91,346.75s8.8-32.12,22.56-19.08c11.24,10.65-4.33,32.92-7.68,39.22-4.72,8.89-12.42,25.46-6.6,35.2,0,0,24.93-15.88,11.13-38.55" transform="translate(0 0)"/><path class="cls-1" d="M107.72,344.38s-8.8,32.12-22.57,19.08c-11.23-10.64,4.34-32.91,7.69-39.22,4.72-8.88,12.41-25.46,6.6-35.2,0,0-24.93,15.89-11.13,38.55" transform="translate(0 0)"/><path class="cls-1" d="M79.76,233.62s8.8-32.12,22.57-19.08c11.23,10.65-4.34,32.92-7.69,39.22-4.72,8.89-12.42,25.46-6.6,35.2,0,0,24.93-15.88,11.13-38.55" transform="translate(0 0)"/><path class="cls-1" d="M80.57,231.25S71.77,263.37,58,250.33c-11.23-10.64,4.34-32.91,7.69-39.22,4.72-8.88,12.42-25.46,6.6-35.2,0,0-24.93,15.89-11.13,38.55" transform="translate(0 0)"/><path class="cls-1" d="M54.2,282.17s8.8-32.12,22.57-19.08C88,273.74,72.44,296,69.09,302.31c-4.72,8.89-12.42,25.46-6.61,35.2,0,0,24.94-15.88,11.14-38.55" transform="translate(0 0)"/><path class="cls-1" d="M55,279.8s-8.8,32.12-22.57,19.08C21.2,288.24,36.77,266,40.12,259.66c4.72-8.88,12.41-25.45,6.6-35.19,0,0-24.93,15.88-11.14,38.54" transform="translate(0 0)"/><path class="cls-1" d="M80.53,391.6S71.73,423.72,58,410.68c-11.27-10.68,4.3-32.92,7.65-39.22,4.72-8.89,12.42-25.46,6.6-35.2,0,0-24.93,15.88-11.13,38.55" transform="translate(0 0)"/><path class="cls-1" d="M27,329.39s8.81-32.12,22.57-19.08c11.24,10.64-4.33,32.91-7.68,39.22-4.72,8.88-12.42,25.46-6.61,35.2,0,0,24.94-15.88,11.14-38.55" transform="translate(0 0)"/><path class="cls-1" d="M27.83,327S19,359.14,5.26,346.1C-6,335.46,9.6,313.18,13,306.88c4.72-8.89,12.41-25.46,6.6-35.2,0,0-24.93,15.88-11.14,38.55" transform="translate(0 0)"/><path class="cls-1" d="M291.79,330.3s8.8-32.12,22.56-19.08c11.24,10.64-4.33,32.91-7.68,39.22-4.72,8.88-12.42,25.45-6.61,35.19,0,0,24.94-15.88,11.14-38.54" transform="translate(0 0)"/><path class="cls-1" d="M292.6,327.93S283.8,360.05,270,347c-11.23-10.65,4.34-32.92,7.69-39.22,4.72-8.89,12.41-25.46,6.6-35.2,0,0-24.93,15.88-11.13,38.55" transform="translate(0 0)"/><path class="cls-1" d="M267.05,376.48s-8.81,32.12-22.57,19.08c-11.24-10.64,4.33-32.92,7.68-39.22,4.72-8.89,12.42-25.46,6.61-35.2,0,0-24.93,15.88-11.14,38.55" transform="translate(0 0)"/><path class="cls-1" d="M239.08,265.72s8.81-32.12,22.57-19.08c11.24,10.64-4.33,32.91-7.68,39.22-4.72,8.88-12.42,25.46-6.61,35.2,0,0,24.93-15.88,11.14-38.55" transform="translate(0 0)"/><path class="cls-1" d="M239.9,263.35s-8.8,32.12-22.57,19.08c-11.23-10.64,4.34-32.92,7.69-39.22,4.72-8.89,12.41-25.46,6.6-35.2,0,0-24.93,15.88-11.14,38.55" transform="translate(0 0)"/><path class="cls-1" d="M213.53,314.27s8.8-32.12,22.57-19.08c11.23,10.64-4.34,32.92-7.69,39.22-4.72,8.89-12.41,25.46-6.6,35.2,0,0,24.93-15.88,11.13-38.55" transform="translate(0 0)"/><path class="cls-1" d="M214.35,311.9S205.54,344,191.78,331c-11.24-10.64,4.33-32.91,7.68-39.22,4.72-8.88,12.42-25.46,6.61-35.2,0,0-24.94,15.89-11.14,38.55" transform="translate(0 0)"/><path class="cls-1" d="M187.12,363.7s8.81-32.12,22.57-19.08c11.24,10.64-4.33,32.91-7.68,39.22-4.72,8.88-12.42,25.46-6.61,35.2,0,0,24.94-15.88,11.14-38.55" transform="translate(0 0)"/><path class="cls-1" d="M187.94,361.33s-8.8,32.12-22.57,19.08c-11.23-10.64,4.34-32.91,7.69-39.22,4.72-8.89,12.41-25.46,6.6-35.2,0,0-24.93,15.88-11.14,38.55" transform="translate(0 0)"/><path class="cls-1" d="M345.58,393.49s-8.8,32.12-22.57,19.08c-11.23-10.64,4.34-32.91,7.69-39.22,4.72-8.88,12.41-25.45,6.6-35.19,0,0-24.93,15.88-11.14,38.54" transform="translate(0 0)"/><path class="cls-1" d="M265.61,53s8.81-32.12,22.57-19.08c11.24,10.65-4.33,32.92-7.69,39.22-4.71,8.89-12.41,25.46-6.6,35.2,0,0,24.93-15.88,11.14-38.55" transform="translate(0 0)"/><path class="cls-1" d="M239.21,102.39s8.8-32.12,22.57-19.08c11.23,10.64-4.34,32.92-7.69,39.22-4.72,8.89-12.42,25.46-6.6,35.2,0,0,24.93-15.88,11.13-38.55" transform="translate(0 0)"/><path class="cls-1" d="M240,100s-8.8,32.12-22.57,19.08c-11.23-10.64,4.34-32.91,7.69-39.22,4.72-8.88,12.42-25.46,6.6-35.2,0,0-24.93,15.88-11.13,38.55" transform="translate(0 0)"/><path class="cls-1" d="M213.65,150.94s8.81-32.12,22.57-19.08c11.24,10.65-4.33,32.92-7.68,39.22-4.72,8.89-12.42,25.46-6.61,35.2,0,0,24.93-15.88,11.14-38.55" transform="translate(0 0)"/><path class="cls-1" d="M214.47,148.57s-8.8,32.12-22.57,19.08c-11.23-10.64,4.34-32.91,7.69-39.22,4.72-8.88,12.41-25.45,6.6-35.19,0,0-24.93,15.88-11.14,38.54" transform="translate(0 0)"/><path class="cls-1" d="M186.51,37.81s8.8-32.12,22.56-19.08c11.24,10.65-4.33,32.92-7.68,39.22-4.72,8.89-12.42,25.46-6.6,35.2,0,0,24.93-15.88,11.13-38.55" transform="translate(0 0)"/><path class="cls-1" d="M161,86.36s8.8-32.12,22.57-19.07c11.23,10.64-4.34,32.91-7.69,39.22-4.72,8.88-12.41,25.45-6.6,35.19,0,0,24.93-15.88,11.14-38.54" transform="translate(0 0)"/><path class="cls-1" d="M161.77,84S153,116.11,139.2,103.07c-11.24-10.64,4.33-32.91,7.69-39.22,4.71-8.88,12.41-25.45,6.6-35.19,0,0-24.93,15.88-11.14,38.54" transform="translate(0 0)"/><path class="cls-1" d="M425.72,87.27s8.81-32.12,22.57-19.08c11.23,10.65-4.34,32.92-7.69,39.22-4.72,8.89-12.41,25.46-6.6,35.2,0,0,24.93-15.88,11.14-38.55" transform="translate(0 0)"/><path class="cls-1" d="M426.54,84.9S417.73,117,404,104c-11.23-10.64,4.34-32.91,7.69-39.22,4.72-8.88,12.41-25.45,6.6-35.19,0,0-24.93,15.88-11.14,38.54" transform="translate(0 0)"/><path class="cls-1" d="M373,22.69s8.8-32.12,22.57-19.07c11.23,10.64-4.34,32.91-7.69,39.22-4.72,8.88-12.41,25.45-6.6,35.19,0,0,24.93-15.88,11.14-38.54" transform="translate(0 0)"/><path class="cls-1" d="M398.53,134.49s8.81-32.12,22.57-19.08c11.24,10.64-4.33,32.91-7.69,39.22-4.71,8.88-12.41,25.46-6.6,35.2,0,0,24.93-15.89,11.14-38.55" transform="translate(0 0)"/><path class="cls-1" d="M399.35,132.12s-8.8,32.12-22.57,19.08c-11.23-10.64,4.34-32.92,7.69-39.22,4.72-8.89,12.41-25.46,6.6-35.2,0,0-24.93,15.88-11.14,38.55" transform="translate(0 0)"/><path class="cls-1" d="M373,183s8.8-32.12,22.57-19.08c11.23,10.64-4.34,32.92-7.69,39.22-4.72,8.89-12.41,25.46-6.6,35.2,0,0,24.93-15.88,11.13-38.55" transform="translate(0 0)"/><path class="cls-1" d="M373.79,180.67s-8.8,32.12-22.56,19.08c-11.24-10.64,4.33-32.91,7.68-39.22,4.72-8.88,12.42-25.46,6.6-35.2,0,0-24.93,15.88-11.13,38.55" transform="translate(0 0)"/><path class="cls-1" d="M345.83,69.91s8.8-32.12,22.57-19.08c11.23,10.64-4.34,32.92-7.69,39.22-4.72,8.89-12.41,25.46-6.6,35.2,0,0,24.93-15.88,11.14-38.55" transform="translate(0 0)"/><path class="cls-1" d="M346.65,67.54s-8.81,32.12-22.57,19.08C312.84,76,328.41,53.71,331.76,47.4c4.72-8.88,12.42-25.46,6.61-35.2,0,0-24.93,15.88-11.14,38.55" transform="translate(0 0)"/><path class="cls-1" d="M320.28,118.46s8.8-32.12,22.57-19.08c11.23,10.65-4.34,32.92-7.69,39.22-4.72,8.89-12.42,25.46-6.6,35.2,0,0,24.93-15.88,11.13-38.55" transform="translate(0 0)"/><path class="cls-1" d="M321.09,116.09s-8.8,32.12-22.57,19.08c-11.23-10.64,4.34-32.91,7.69-39.22,4.72-8.88,12.42-25.45,6.6-35.19,0,0-24.93,15.88-11.13,38.54" transform="translate(0 0)"/><path class="cls-1" d="M346.57,232.47s8.81-32.12,22.57-19.08c11.24,10.64-4.33,32.91-7.68,39.22-4.72,8.88-12.42,25.46-6.61,35.2,0,0,24.93-15.88,11.14-38.55" transform="translate(0 0)"/><path class="cls-1" d="M347.39,230.1s-8.8,32.12-22.57,19.08c-11.23-10.64,4.34-32.92,7.69-39.22,4.72-8.89,12.41-25.46,6.6-35.2,0,0-24.93,15.88-11.14,38.55" transform="translate(0 0)"/><path class="cls-1" d="M321,281s8.8-32.12,22.57-19.08c11.23,10.64-4.34,32.92-7.69,39.22-4.72,8.89-12.41,25.46-6.6,35.2,0,0,24.93-15.88,11.13-38.55" transform="translate(0 0)"/><path class="cls-1" d="M321.84,278.65s-8.81,32.12-22.57,19.08C288,287.09,303.6,264.82,307,258.51c4.72-8.88,12.42-25.46,6.61-35.2,0,0-24.94,15.88-11.14,38.55" transform="translate(0 0)"/><path class="cls-1" d="M293.87,167.89s8.81-32.12,22.57-19.08c11.23,10.64-4.34,32.92-7.69,39.22-4.72,8.89-12.41,25.46-6.6,35.2,0,0,24.93-15.88,11.14-38.55" transform="translate(0 0)"/><path class="cls-1" d="M294.69,165.52s-8.81,32.12-22.57,19.08c-11.23-10.64,4.34-32.91,7.69-39.22,4.71-8.88,12.41-25.46,6.6-35.2,0,0-24.93,15.88-11.14,38.55" transform="translate(0 0)"/><path class="cls-1" d="M268.32,216.44s8.8-32.12,22.57-19.08c11.23,10.65-4.34,32.92-7.69,39.22-4.72,8.89-12.42,25.46-6.6,35.2,0,0,24.93-15.88,11.13-38.55" transform="translate(0 0)"/><path class="cls-1" d="M269.13,214.07s-8.8,32.12-22.56,19.08c-11.24-10.64,4.33-32.91,7.68-39.22,4.72-8.88,12.42-25.45,6.6-35.19,0,0-24.93,15.88-11.13,38.54" transform="translate(0 0)"/><path class="cls-1" d="M452.33,197.68s-8.81,32.12-22.57,19.08c-11.23-10.64,4.34-32.91,7.69-39.22,4.72-8.88,12.41-25.45,6.6-35.19,0,0-24.93,15.88-11.14,38.54" transform="translate(0 0)"/><path class="cls-1" d="M426,248.61s8.8-32.12,22.57-19.08c11.23,10.64-4.34,32.91-7.69,39.22-4.72,8.88-12.42,25.45-6.6,35.19,0,0,24.93-15.88,11.13-38.54" transform="translate(0 0)"/><path class="cls-1" d="M426.77,246.24s-8.8,32.12-22.56,19.08c-11.24-10.65,4.33-32.92,7.68-39.22,4.72-8.89,12.42-25.46,6.6-35.2,0,0-24.93,15.88-11.13,38.55" transform="translate(0 0)"/><path class="cls-1" d="M453.07,360.24s-8.8,32.12-22.57,19.08c-11.23-10.64,4.34-32.91,7.69-39.22,4.72-8.88,12.41-25.45,6.6-35.19,0,0-24.93,15.88-11.13,38.54" transform="translate(0 0)"/><path class="cls-1" d="M399.55,298s8.81-32.12,22.57-19.08c11.24,10.64-4.33,32.91-7.69,39.22-4.71,8.88-12.41,25.45-6.6,35.19,0,0,24.93-15.88,11.14-38.54" transform="translate(0 0)"/><path class="cls-1" d="M400.37,295.67s-8.8,32.12-22.57,19.07c-11.23-10.64,4.34-32.91,7.69-39.22,4.72-8.88,12.41-25.45,6.6-35.19,0,0-24.93,15.88-11.14,38.54" transform="translate(0 0)"/><path class="cls-1" d="M374,346.59s8.8-32.12,22.57-19.08c11.23,10.64-4.34,32.91-7.69,39.22-4.72,8.88-12.41,25.45-6.6,35.19,0,0,24.93-15.88,11.13-38.54" transform="translate(0 0)"/><path class="cls-1" d="M374.81,344.22s-8.8,32.12-22.56,19.08c-11.24-10.65,4.33-32.92,7.68-39.22,4.72-8.89,12.42-25.46,6.6-35.2,0,0-24.93,15.88-11.13,38.55" transform="translate(0 0)"/></g></g></svg>