
<svg xmlns="http://www.w3.org/2000/svg" viewBox="0 0 291.55 545.86"><defs><style>.cls-1{fill:#93c021;}.cls-2{fill:#3f5042;}</style></defs><g id="Capa_2" data-name="Capa 2"><g id="Capa_1-2" data-name="Capa 1"><path class="cls-1" d="M229.63,68.09c3.54,4.56-6.06,11.49-15.21,3.85S187.56,64,188.66,66.7,200.53,70.45,206,78.85s11.3,16.79,8.33,24.75c-6.72-2.56-9-.84-13.4-6.33s-3.91-10-9.53-15.6-5-10.07-9.32-14.55-6.15.93-5.28,9.66.61,12.8-1.72,18.28-5.3,10-6.85,2.18,1.37-13.27-.4-20.82,3.58-17.07-1.92-27.07c10,4.86,11.78,7,25.14,7s32.86,4.38,38.58,11.75"/><path class="cls-1" d="M163,47.48s11.31-2.43,23.14-5.66,32.14-10.18,40.76-1.74-2.62,2.57-14.07,7.76-15.87,1.3-23.22,3.55S174.88,55,174.88,55Z"/><path class="cls-1" d="M148.44,38.09a78.82,78.82,0,0,0,13.36-7.32c6.62-4.57,10-5.91,17.77-7.29S194.9,18,204.05,22.17s3.4,4-3.89,6.81-11.63.08-17.43,1.35C176.62,31.66,168.8,42,159.1,44.7c-6.45-4.31-10.66-6.61-10.66-6.61"/><path class="cls-1" d="M146.72,94c-4.86-1,2.22-10.51,3-20.79s1-17-.42-22.55a51.94,51.94,0,0,1-1.05-12.58A119.82,119.82,0,0,1,159.6,45c-.59,11.43,2.54,17.59.33,26.42S151.59,95,146.72,94"/><path class="cls-1" d="M132.9,31.22a94.07,94.07,0,0,0,13.26-7.91c6.25-4.57,19.48-8.75,25.09-11.06,5.87-2.42,4.18,7.89-2.72,9.56s-13.47,12.86-24,14.19a70.4,70.4,0,0,0-11.62-4.78"/><path class="cls-1" d="M129.09,78.94c.12-4.74,1-18.28.45-22.87s5-16.13,2.69-24.34c7,1.69,9.9,3.49,12.29,4.27,1.79,6.82-8.61,24.7-8.25,33.58.7,17-7.3,14.09-7.18,9.36"/><path class="cls-1" d="M119.69,28.49s7.37-3,10.77-10.07,12.76-16.27,22-18,12.91,2.87,12.91,2.87-4.55-1.85-10.62,1.55-8.61,10.78-14.91,14.84-7,10.32-8.76,11.21a107.8,107.8,0,0,0-11.39-2.38"/><path class="cls-1" d="M115.18,79.31c-2.62-2.82-4.38-9.54-3-14.35s.72-8.09,2.25-19.09,6.87-14.41,5.27-17.38A49,49,0,0,1,130.42,31s1.23,6-4.37,16.56-8.24,34.54-10.87,31.73"/><path class="cls-1" d="M91.29,28.89s21.43-11.29,25.89-17.3,8.78.47,3.62,5S114.58,25.85,105.33,28c4.6,2.37,7.15,12.84,3.24,22.7s-7.18-.24-6.61-8.25S91.29,28.89,91.29,28.89"/><path class="cls-2" d="M167.67,50.93s0,0,0-.06a.16.16,0,0,1,.1-.2c20.63-6.57,33.2-8.73,40.11-9.38,7.52-.71,10.11.13,10.22.16a.16.16,0,0,1-.1.3c-.1,0-10.79-3.32-50.14,9.22A.16.16,0,0,1,167.67,50.93Z"/><path class="cls-2" d="M45.36,39.24l0-.05a.16.16,0,0,1,.09-.2,203.2,203.2,0,0,1,37.27-9.28C101.9,26.83,129,26,149,38.23c30.36,18.59,43.44,31.67,63.61,63.6a.14.14,0,0,1,0,.21.14.14,0,0,1-.21-.05c-20.15-31.88-33.21-44.93-63.52-63.5-19.93-12.2-47-11.34-66.13-8.47a204.5,204.5,0,0,0-37.2,9.26A.18.18,0,0,1,45.36,39.24Z"/><path class="cls-2" d="M180.06,61a.1.1,0,0,1,0-.09.16.16,0,0,1,.13-.17c20.92-2.33,42.95,7.47,43.17,7.57a.15.15,0,1,1-.13.28c-.22-.09-22.17-9.86-43-7.54A.13.13,0,0,1,180.06,61Z"/><path class="cls-2" d="M172.34,86.64a.11.11,0,0,1,0-.09c0-.19-1.81-18.6,1.2-30.69a.16.16,0,0,1,.3.08c-3,12-1.21,30.39-1.19,30.58a.16.16,0,0,1-.14.17A.19.19,0,0,1,172.34,86.64Z"/><path class="cls-2" d="M155,42.37h0a.16.16,0,0,1,0-.22c.21-.18,20.86-17.88,45.48-16.54a.16.16,0,0,1,.15.17.15.15,0,0,1-.16.14c-24.5-1.33-45.06,16.29-45.26,16.47A.16.16,0,0,1,155,42.37Z"/><path class="cls-2" d="M149.91,85a.17.17,0,0,1,0-.17c3.34-7.86,4.24-19.13,4.4-27.2.18-8.75-.44-15.72-.45-15.79a.15.15,0,0,1,.14-.17.15.15,0,0,1,.17.14c0,.07.63,7.06.45,15.82-.16,8.1-1.06,19.41-4.42,27.32a.14.14,0,0,1-.2.08Z"/><path class="cls-2" d="M139.62,33.91a.17.17,0,0,1,0-.21c4.53-5.18,13.87-9.26,21.37-12.54,4.5-2,8.38-3.66,10.56-5.24a.15.15,0,0,1,.22,0,.17.17,0,0,1,0,.22c-2.21,1.6-6.11,3.3-10.62,5.28-7.48,3.26-16.78,7.32-21.26,12.46a.16.16,0,0,1-.22,0Z"/><path class="cls-2" d="M133.78,77.48a.17.17,0,0,1,0-.18c1-1.9.7-5.31.35-8.92-.45-4.51-1-9.63,1-13.39,3.37-6.64,2.55-21.67,2.54-21.82a.16.16,0,0,1,.15-.16.15.15,0,0,1,.16.15c0,.15.84,15.25-2.57,22-1.87,3.68-1.37,8.75-.93,13.22.37,3.82.69,7.12-.39,9.1a.16.16,0,0,1-.21.06Z"/><path class="cls-2" d="M126.18,29.82l0,0a.15.15,0,0,1,.08-.21c3.58-1.5,7.43-6.93,11.15-12.18,3.86-5.44,7.84-11.06,11.67-12.6a.16.16,0,0,1,.2.09.15.15,0,0,1-.08.2c-3.74,1.51-7.7,7.09-11.53,12.49S130,28.32,126.35,29.86A.14.14,0,0,1,126.18,29.82Z"/><path class="cls-2" d="M115.06,75a.15.15,0,0,1,0-.18c1.87-3.53,2.3-10.88,2.76-18.66.6-10.25,1.29-21.87,5.5-26.88a.16.16,0,0,1,.22,0,.16.16,0,0,1,0,.22c-4.15,4.93-4.83,16.49-5.43,26.69-.46,7.82-.89,15.2-2.79,18.79a.15.15,0,0,1-.21.07Z"/><path class="cls-2" d="M100.19,28.3h0a.15.15,0,0,1,0-.22,75.77,75.77,0,0,1,7.27-5.41c4.83-3.3,9.39-6.42,11.48-10.63a.16.16,0,1,1,.28.14c-2.13,4.29-6.72,7.43-11.58,10.75a78.73,78.73,0,0,0-7.25,5.38A.16.16,0,0,1,100.19,28.3Z"/><path class="cls-2" d="M106,49.29a.16.16,0,0,1,0-.16c3-7.17-1.9-18-7.57-20.59a.16.16,0,0,1-.08-.21.15.15,0,0,1,.21-.07c5.79,2.62,10.76,13.68,7.73,21a.16.16,0,0,1-.21.08A.1.1,0,0,1,106,49.29Z"/><path class="cls-1" d="M76,117.43c-3.54-4.57,6.06-11.49,15.21-3.85s26.85,7.92,25.76,5.24-11.87-3.76-17.34-12.15-11.31-16.8-8.33-24.76c6.72,2.56,9,.84,13.4,6.34s3.91,10,9.53,15.59,5,10.08,9.32,14.55,6.15-.92,5.28-9.65-.61-12.81,1.72-18.29,5.3-10,6.85-2.17-1.37,13.26.4,20.82-3.59,17.07,1.92,27.06c-10-4.86-11.78-7-25.14-7S81.74,124.8,76,117.43"/><path class="cls-1" d="M142.62,138s-11.31,2.43-23.14,5.66-32.15,10.18-40.76,1.74,2.62-2.57,14.07-7.77,15.87-1.3,23.22-3.55,14.76-3.62,14.76-3.62Z"/><path class="cls-1" d="M157.21,147.42a78.47,78.47,0,0,0-13.36,7.33c-6.62,4.57-10,5.91-17.77,7.29s-15.33,5.52-24.48,1.3-3.4-4.05,3.89-6.81,11.63-.08,17.43-1.34c6.11-1.33,13.93-11.67,23.63-14.37,6.45,4.31,10.66,6.6,10.66,6.6"/><path class="cls-1" d="M158.93,91.51c4.86,1-2.22,10.52-3,20.79s-1,17,.42,22.56a51.91,51.91,0,0,1,1,12.58A120.76,120.76,0,0,1,146,140.55c.59-11.44-2.53-17.6-.33-26.42s8.35-23.59,13.22-22.62"/><path class="cls-1" d="M172.75,154.29a95.64,95.64,0,0,0-13.27,7.91c-6.24,4.57-19.47,8.76-25.08,11.07-5.87,2.41-4.19-7.9,2.72-9.57s13.47-12.85,24-14.18a69.67,69.67,0,0,0,11.62,4.77"/><path class="cls-1" d="M176.56,106.57c-.12,4.74-1,18.29-.46,22.87s-4.94,16.13-2.68,24.34c-7-1.69-9.91-3.48-12.29-4.26-1.79-6.83,8.61-24.71,8.25-33.59-.7-17,7.3-14.08,7.18-9.36"/><path class="cls-1" d="M186,157s-7.37,3-10.77,10.07-12.76,16.28-22,18-12.91-2.87-12.91-2.87,4.55,1.85,10.62-1.55,8.61-10.78,14.91-14.84,7-10.32,8.76-11.21A106.43,106.43,0,0,0,186,157"/><path class="cls-1" d="M190.47,106.21c2.62,2.81,4.38,9.53,3,14.35s-.72,8.08-2.25,19.09S184.36,154.05,186,157a48.59,48.59,0,0,1-10.73-2.52s-1.23-6,4.37-16.57,8.24-34.54,10.87-31.72"/><path class="cls-1" d="M214.35,156.62s-21.42,11.3-25.89,17.31-8.77-.48-3.61-5,6.22-9.23,15.47-11.35c-4.61-2.36-7.15-12.84-3.24-22.69s7.18.23,6.61,8.25,10.66,13.51,10.66,13.51"/><path class="cls-2" d="M138,134.59a.16.16,0,0,1,0,.06.15.15,0,0,1-.1.19c-20.63,6.57-33.2,8.73-40.11,9.39-7.52.71-10.12-.13-10.22-.17a.15.15,0,1,1,.1-.29c.1,0,10.79,3.31,50.13-9.23A.16.16,0,0,1,138,134.59Z"/><path class="cls-2" d="M260.28,146.28a.1.1,0,0,1,0,.05.15.15,0,0,1-.1.2A204.12,204.12,0,0,1,223,155.8c-19.21,2.88-46.32,3.75-66.34-8.51-30.36-18.6-43.44-31.67-63.61-63.6a.16.16,0,1,1,.26-.17c20.14,31.88,33.2,44.94,63.52,63.5,19.93,12.21,47,11.35,66.13,8.47a203.49,203.49,0,0,0,37.19-9.25A.14.14,0,0,1,260.28,146.28Z"/><path class="cls-2" d="M125.59,124.54a.18.18,0,0,1,0,.09.15.15,0,0,1-.14.17c-20.91,2.33-42.94-7.46-43.16-7.56a.16.16,0,0,1,.13-.29c.22.1,22.17,9.86,43,7.54A.19.19,0,0,1,125.59,124.54Z"/><path class="cls-2" d="M133.31,98.88a.13.13,0,0,1,0,.09c0,.18,1.81,18.6-1.2,30.68a.15.15,0,0,1-.19.12.16.16,0,0,1-.11-.19c3-12,1.21-30.4,1.19-30.58a.15.15,0,0,1,.14-.17A.13.13,0,0,1,133.31,98.88Z"/><path class="cls-2" d="M150.65,143.14h0a.16.16,0,0,1,0,.23c-.2.17-20.85,17.87-45.48,16.53a.14.14,0,0,1-.14-.16.15.15,0,0,1,.16-.15c24.5,1.33,45.05-16.28,45.26-16.46A.16.16,0,0,1,150.65,143.14Z"/><path class="cls-2" d="M155.74,100.54a.17.17,0,0,1,0,.17c-3.34,7.86-4.24,19.13-4.4,27.19-.18,8.75.44,15.73.45,15.8a.16.16,0,0,1-.14.17.15.15,0,0,1-.17-.14c0-.07-.63-7.06-.46-15.83.17-8.1,1.07-19.41,4.43-27.32a.16.16,0,0,1,.2-.08Z"/><path class="cls-2" d="M166,151.6a.15.15,0,0,1,0,.21c-4.53,5.19-13.87,9.27-21.37,12.55-4.5,2-8.38,3.66-10.56,5.24a.16.16,0,1,1-.19-.25c2.21-1.61,6.11-3.31,10.62-5.28,7.48-3.27,16.78-7.33,21.26-12.46a.15.15,0,0,1,.22,0Z"/><path class="cls-2" d="M171.87,108a.17.17,0,0,1,0,.18c-1,1.89-.7,5.3-.35,8.91.44,4.52,1,9.64-1,13.39-3.37,6.65-2.55,21.67-2.54,21.82a.16.16,0,0,1-.15.17.16.16,0,0,1-.16-.15c0-.15-.84-15.26,2.57-22,1.86-3.67,1.37-8.74.93-13.22-.37-3.82-.7-7.11.38-9.09a.15.15,0,0,1,.22-.06Z"/><path class="cls-2" d="M179.47,155.69l0,.05a.15.15,0,0,1-.08.2c-3.58,1.5-7.43,6.94-11.15,12.19-3.86,5.44-7.84,11.06-11.67,12.59a.14.14,0,0,1-.2-.08.15.15,0,0,1,.08-.21c3.74-1.5,7.7-7.08,11.53-12.48s7.63-10.76,11.28-12.29A.16.16,0,0,1,179.47,155.69Z"/><path class="cls-2" d="M190.59,110.52a.15.15,0,0,1,0,.18c-1.86,3.53-2.29,10.88-2.75,18.66-.6,10.25-1.29,21.87-5.5,26.87a.16.16,0,0,1-.24-.2c4.15-4.93,4.83-16.49,5.43-26.69.46-7.82.89-15.2,2.79-18.79a.16.16,0,0,1,.21-.06Z"/><path class="cls-2" d="M205.45,157.21h0a.16.16,0,0,1,0,.22,77.56,77.56,0,0,1-7.28,5.4c-4.82,3.3-9.38,6.42-11.47,10.63a.16.16,0,0,1-.21.07.15.15,0,0,1-.07-.21c2.13-4.28,6.72-7.42,11.58-10.75a75.24,75.24,0,0,0,7.25-5.38A.15.15,0,0,1,205.45,157.21Z"/><path class="cls-2" d="M199.68,136.22a.17.17,0,0,1,0,.17c-3,7.16,1.9,18,7.57,20.58a.15.15,0,0,1,.07.21.14.14,0,0,1-.2.08c-5.79-2.62-10.76-13.69-7.73-21a.16.16,0,0,1,.2-.09Z"/><path class="cls-1" d="M184.31,245.54c3.54,4.56-6.07,11.49-15.21,3.85s-26.86-7.93-25.76-5.24,11.87,3.75,17.34,12.15S172,273.09,169,281.05c-6.72-2.56-8.94-.84-13.39-6.33s-3.92-10-9.54-15.6-5-10.07-9.31-14.55-6.15.93-5.29,9.66.62,12.8-1.71,18.28-5.3,10-6.85,2.18,1.37-13.27-.4-20.82,3.58-17.07-1.92-27.07c10,4.86,11.78,7,25.13,7s32.87,4.38,38.59,11.75"/><path class="cls-1" d="M117.71,224.93s11.3-2.43,23.13-5.66,32.15-10.18,40.76-1.74-2.62,2.57-14.06,7.76-15.87,1.3-23.22,3.55-14.77,3.63-14.77,3.63Z"/><path class="cls-1" d="M103.12,215.54a79.25,79.25,0,0,0,13.36-7.32c6.61-4.57,10-5.91,17.77-7.29s15.32-5.52,24.48-1.31,3.4,4-3.9,6.81-11.63.08-17.43,1.35c-6.1,1.33-13.92,11.67-23.62,14.37-6.45-4.31-10.66-6.61-10.66-6.61"/><path class="cls-1" d="M101.4,271.45c-4.86-1,2.22-10.51,3-20.79s1-17-.41-22.55a51.94,51.94,0,0,1-1-12.58,118.84,118.84,0,0,1,11.34,6.89c-.59,11.43,2.53,17.59.33,26.42s-8.35,23.58-13.21,22.61"/><path class="cls-1" d="M87.57,208.67a94.49,94.49,0,0,0,13.27-7.91c6.25-4.57,19.48-8.75,25.08-11.06,5.88-2.42,4.19,7.89-2.71,9.56s-13.48,12.86-24,14.19a70.25,70.25,0,0,0-11.63-4.78"/><path class="cls-1" d="M83.77,256.39c.12-4.74,1-18.28.45-22.87s5-16.13,2.68-24.34c7,1.69,9.91,3.49,12.3,4.27C101,220.27,90.59,238.15,91,247c.69,17-7.31,14.09-7.18,9.36"/><path class="cls-1" d="M74.37,205.94s7.37-3,10.77-10.07,12.76-16.27,22-18S120,180.72,120,180.72s-4.54-1.85-10.62,1.55-8.6,10.78-14.91,14.84-7,10.32-8.75,11.21a107.8,107.8,0,0,0-11.39-2.38"/><path class="cls-1" d="M69.85,256.76c-2.62-2.82-4.37-9.54-3-14.35s.72-8.09,2.24-19.09,6.88-14.41,5.28-17.38a49.13,49.13,0,0,1,10.73,2.53s1.22,6-4.38,16.56-8.24,34.54-10.87,31.73"/><path class="cls-1" d="M46,206.34S67.4,195.05,71.86,189s8.77.47,3.62,5S69.26,203.3,60,205.41c4.6,2.37,7.14,12.84,3.24,22.7s-7.19-.24-6.61-8.25S46,206.34,46,206.34"/><path class="cls-2" d="M122.35,228.38a.21.21,0,0,1,0-.06.17.17,0,0,1,.11-.2c20.62-6.57,33.2-8.73,40.11-9.38,7.52-.71,10.11.13,10.22.16a.17.17,0,0,1,.1.2.16.16,0,0,1-.2.1c-.1,0-10.79-3.32-50.14,9.22A.16.16,0,0,1,122.35,228.38Z"/><path class="cls-2" d="M0,216.69l0-.05a.16.16,0,0,1,.09-.2,202.94,202.94,0,0,1,37.26-9.28c19.22-2.88,46.33-3.74,66.34,8.52,30.37,18.59,43.45,31.67,63.62,63.6a.15.15,0,0,1,0,.21.14.14,0,0,1-.21-.05c-20.15-31.88-33.21-44.93-63.52-63.5-19.94-12.2-47-11.34-66.13-8.47a204.21,204.21,0,0,0-37.2,9.26A.17.17,0,0,1,0,216.69Z"/><path class="cls-2" d="M134.73,238.42a.19.19,0,0,1,0-.09.16.16,0,0,1,.14-.17c20.92-2.33,42.94,7.47,43.16,7.57a.15.15,0,0,1,.08.21.15.15,0,0,1-.2.07c-.22-.1-22.17-9.86-43-7.54A.15.15,0,0,1,134.73,238.42Z"/><path class="cls-2" d="M127,264.09a.36.36,0,0,1,0-.09c0-.19-1.8-18.6,1.2-30.69a.16.16,0,0,1,.19-.11.15.15,0,0,1,.12.19c-3,12-1.21,30.39-1.19,30.58a.17.17,0,0,1-.14.17A.22.22,0,0,1,127,264.09Z"/><path class="cls-2" d="M109.68,219.82h0a.16.16,0,0,1,0-.22c.21-.18,20.86-17.88,45.48-16.54a.16.16,0,0,1,.15.17.15.15,0,0,1-.16.14c-24.5-1.33-45.06,16.29-45.26,16.47A.16.16,0,0,1,109.68,219.82Z"/><path class="cls-2" d="M104.59,262.42a.15.15,0,0,1,0-.16c3.34-7.86,4.23-19.13,4.4-27.2.18-8.75-.45-15.72-.45-15.79a.15.15,0,0,1,.14-.17.15.15,0,0,1,.17.14c0,.07.63,7.06.45,15.82-.16,8.1-1.06,19.41-4.42,27.32a.16.16,0,0,1-.21.08A.1.1,0,0,1,104.59,262.42Z"/><path class="cls-2" d="M94.3,211.36a.15.15,0,0,1,0-.21c4.53-5.19,13.87-9.26,21.37-12.54,4.5-2,8.38-3.66,10.56-5.25a.16.16,0,1,1,.18.26c-2.2,1.6-6.1,3.3-10.62,5.28-7.47,3.26-16.77,7.32-21.26,12.46a.16.16,0,0,1-.22,0Z"/><path class="cls-2" d="M88.46,254.93a.14.14,0,0,1,0-.18c1-1.9.7-5.31.34-8.92-.44-4.51-.94-9.63,1-13.39,3.37-6.64,2.55-21.67,2.54-21.82a.15.15,0,0,1,.14-.16.15.15,0,0,1,.17.15c0,.15.84,15.25-2.58,22-1.86,3.68-1.36,8.75-.93,13.22.38,3.82.7,7.12-.38,9.1a.16.16,0,0,1-.21.06Z"/><path class="cls-2" d="M80.86,207.27a.05.05,0,0,1,0,0,.15.15,0,0,1,.08-.21c3.57-1.5,7.42-6.93,11.15-12.18,3.85-5.44,7.84-11.06,11.67-12.6a.16.16,0,0,1,.11.29c-3.74,1.5-7.7,7.09-11.53,12.49S84.69,205.77,81,207.31A.14.14,0,0,1,80.86,207.27Z"/><path class="cls-2" d="M69.74,252.45a.15.15,0,0,1,0-.18c1.87-3.53,2.3-10.88,2.76-18.66.6-10.25,1.28-21.87,5.5-26.88a.16.16,0,0,1,.22,0,.16.16,0,0,1,0,.22c-4.15,4.93-4.83,16.49-5.43,26.69-.46,7.82-.89,15.2-2.79,18.79a.16.16,0,0,1-.21.07Z"/><path class="cls-2" d="M54.87,205.75h0a.16.16,0,0,1,0-.22,77.19,77.19,0,0,1,7.28-5.41c4.83-3.3,9.38-6.42,11.48-10.63a.16.16,0,0,1,.28.14c-2.13,4.28-6.72,7.43-11.58,10.75a78.73,78.73,0,0,0-7.25,5.38A.16.16,0,0,1,54.87,205.75Z"/><path class="cls-2" d="M60.65,226.74a.14.14,0,0,1,0-.16c3-7.17-1.9-18-7.57-20.59a.16.16,0,0,1-.08-.21.15.15,0,0,1,.21-.07c5.78,2.61,10.75,13.68,7.73,21a.17.17,0,0,1-.21.08A.1.1,0,0,1,60.65,226.74Z"/><path class="cls-1" d="M30.7,294.88c-3.54-4.57,6.06-11.49,15.2-3.85s26.86,7.92,25.77,5.24-11.87-3.76-17.35-12.15S43,267.32,46,259.36c6.72,2.56,8.94.84,13.39,6.34s3.92,10,9.54,15.59,5,10.08,9.31,14.55,6.16-.92,5.29-9.65-.61-12.81,1.72-18.29,5.3-10,6.85-2.17-1.38,13.26.39,20.82-3.58,17.07,1.92,27.06c-10-4.86-11.78-7-25.13-7s-32.86-4.38-38.58-11.75"/><path class="cls-1" d="M97.29,315.49s-11.3,2.43-23.13,5.66S42,331.33,33.4,322.89s2.62-2.57,14.07-7.77,15.86-1.3,23.22-3.55A151.89,151.89,0,0,1,85.45,308Z"/><path class="cls-1" d="M111.88,324.87a78.89,78.89,0,0,0-13.36,7.33c-6.61,4.57-10,5.9-17.77,7.28S65.43,345,56.28,340.79s-3.4-4.05,3.89-6.81,11.63-.08,17.43-1.34c6.1-1.33,13.92-11.67,23.62-14.37,6.45,4.31,10.66,6.6,10.66,6.6"/><path class="cls-1" d="M113.6,269c4.87,1-2.21,10.52-3,20.79s-1,17,.41,22.56a52.17,52.17,0,0,1,1.06,12.58A120.76,120.76,0,0,1,100.72,318c.59-11.44-2.53-17.6-.33-26.42S108.74,268,113.6,269"/><path class="cls-1" d="M127.43,331.74a94.49,94.49,0,0,0-13.27,7.91c-6.25,4.57-19.48,8.75-25.08,11.07-5.88,2.41-4.19-7.9,2.72-9.57s13.47-12.85,24-14.18a69.28,69.28,0,0,0,11.62,4.77"/><path class="cls-1" d="M131.24,284c-.13,4.74-1,18.29-.46,22.87s-5,16.13-2.68,24.34c-7-1.69-9.91-3.48-12.29-4.26-1.79-6.83,8.61-24.71,8.24-33.59-.69-17,7.31-14.08,7.19-9.36"/><path class="cls-1" d="M140.63,334.47s-7.37,3-10.76,10.07-12.76,16.28-22,18S95,359.7,95,359.7s4.55,1.85,10.62-1.55,8.6-10.78,14.91-14.84,7-10.32,8.76-11.22a105.06,105.06,0,0,0,11.38,2.38"/><path class="cls-1" d="M145.15,283.66c2.62,2.81,4.38,9.53,3,14.35s-.72,8.08-2.25,19.09-6.87,14.4-5.28,17.37A48.59,48.59,0,0,1,129.91,332s-1.23-6,4.37-16.57,8.24-34.54,10.87-31.72"/><path class="cls-1" d="M169,334.07s-21.43,11.3-25.89,17.31-8.77-.48-3.61-5S145.75,337.12,155,335c-4.61-2.36-7.15-12.84-3.24-22.7s7.18.24,6.61,8.26S169,334.07,169,334.07"/><path class="cls-2" d="M92.65,312a.1.1,0,0,1,0,0,.16.16,0,0,1-.1.2C72,318.86,59.39,321,52.47,321.68c-7.52.71-10.11-.13-10.22-.17a.15.15,0,0,1-.09-.2.14.14,0,0,1,.19-.09c.11,0,10.8,3.31,50.14-9.23A.14.14,0,0,1,92.65,312Z"/><path class="cls-2" d="M215,323.73a.09.09,0,0,1,0,0,.16.16,0,0,1-.09.2,204.12,204.12,0,0,1-37.26,9.27c-19.22,2.88-46.32,3.74-66.34-8.51-30.36-18.6-43.44-31.67-63.62-63.6a.17.17,0,0,1,0-.22A.16.16,0,0,1,48,261c20.14,31.88,33.2,44.94,63.51,63.5,19.94,12.21,47,11.35,66.13,8.47a203.46,203.46,0,0,0,37.2-9.25A.14.14,0,0,1,215,323.73Z"/><path class="cls-2" d="M80.27,302a.16.16,0,0,1-.1.26c-20.92,2.33-42.94-7.46-43.16-7.56a.16.16,0,0,1,.13-.29c.22.1,22.17,9.86,43,7.54A.19.19,0,0,1,80.27,302Z"/><path class="cls-2" d="M88,276.33a.13.13,0,0,1,0,.09c0,.18,1.8,18.6-1.2,30.68a.16.16,0,0,1-.19.12.16.16,0,0,1-.11-.19c3-12,1.21-30.4,1.19-30.58a.15.15,0,0,1,.14-.17A.13.13,0,0,1,88,276.33Z"/><path class="cls-2" d="M105.32,320.59h0a.16.16,0,0,1,0,.22c-.2.18-20.86,17.88-45.48,16.54a.15.15,0,0,1-.15-.16.16.16,0,0,1,.17-.15c24.49,1.33,45.05-16.28,45.26-16.46A.14.14,0,0,1,105.32,320.59Z"/><path class="cls-2" d="M110.41,278a.15.15,0,0,1,0,.17c-3.34,7.86-4.23,19.13-4.4,27.19-.17,8.75.45,15.73.45,15.8a.15.15,0,0,1-.14.17.16.16,0,0,1-.17-.14c0-.07-.63-7.06-.45-15.83.17-8.1,1.07-19.41,4.42-27.32a.18.18,0,0,1,.21-.08A.1.1,0,0,1,110.41,278Z"/><path class="cls-2" d="M120.7,329.05a.15.15,0,0,1,0,.21c-4.54,5.19-13.87,9.27-21.37,12.55-4.5,2-8.39,3.66-10.57,5.24a.15.15,0,0,1-.21,0,.16.16,0,0,1,0-.22c2.21-1.61,6.11-3.31,10.62-5.28,7.47-3.27,16.77-7.33,21.26-12.46a.15.15,0,0,1,.22,0Z"/><path class="cls-2" d="M126.54,285.49a.15.15,0,0,1,0,.18c-1,1.89-.7,5.3-.35,8.91.44,4.52.94,9.64-1,13.39-3.37,6.65-2.55,21.67-2.54,21.82a.16.16,0,0,1-.32,0c0-.15-.83-15.26,2.58-22,1.86-3.67,1.37-8.74.93-13.22-.37-3.82-.7-7.11.38-9.09a.14.14,0,0,1,.21-.06S126.53,285.47,126.54,285.49Z"/><path class="cls-2" d="M134.15,333.14l0,.05a.16.16,0,0,1-.09.2c-3.57,1.5-7.42,6.94-11.15,12.19-3.85,5.43-7.84,11.06-11.66,12.59a.16.16,0,1,1-.12-.29c3.74-1.5,7.7-7.08,11.53-12.48s7.63-10.76,11.28-12.3A.2.2,0,0,1,134.15,333.14Z"/><path class="cls-2" d="M145.27,288a.17.17,0,0,1,0,.18c-1.86,3.53-2.3,10.88-2.75,18.66-.61,10.25-1.29,21.86-5.5,26.87a.16.16,0,1,1-.24-.2c4.14-4.93,4.82-16.49,5.42-26.69.46-7.82.9-15.2,2.79-18.79a.17.17,0,0,1,.22-.06Z"/><path class="cls-2" d="M160.13,334.66h0a.16.16,0,0,1,0,.22,77.56,77.56,0,0,1-7.28,5.4c-4.82,3.3-9.38,6.42-11.48,10.63a.15.15,0,0,1-.21.07.17.17,0,0,1-.07-.21c2.13-4.28,6.72-7.42,11.58-10.75a74,74,0,0,0,7.25-5.38A.16.16,0,0,1,160.13,334.66Z"/><path class="cls-2" d="M154.36,313.67a.17.17,0,0,1,0,.17c-3,7.16,1.89,18,7.56,20.58a.16.16,0,0,1,.08.21.16.16,0,0,1-.21.08c-5.78-2.62-10.75-13.69-7.72-21a.16.16,0,0,1,.2-.09Z"/><path class="cls-1" d="M260.85,428.43c3.54,4.57-6.06,11.49-15.21,3.85s-26.85-7.93-25.76-5.24,11.87,3.76,17.34,12.15,11.31,16.8,8.33,24.75c-6.72-2.56-9-.84-13.4-6.33s-3.91-10-9.53-15.59-5-10.08-9.32-14.56-6.15.93-5.28,9.66.61,12.81-1.72,18.28-5.3,10-6.85,2.18,1.37-13.27-.4-20.82,3.59-17.07-1.92-27.07c10,4.86,11.78,7,25.14,7s32.86,4.38,38.58,11.75"/><path class="cls-1" d="M194.25,407.82s11.31-2.43,23.14-5.66,32.15-10.18,40.76-1.74-2.62,2.57-14.07,7.76-15.87,1.31-23.22,3.55a151,151,0,0,1-14.76,3.63Z"/><path class="cls-1" d="M179.66,398.43A78.82,78.82,0,0,0,193,391.11c6.62-4.57,10-5.91,17.77-7.29s15.33-5.52,24.48-1.31,3.4,4.05-3.89,6.81-11.63.09-17.43,1.35C207.84,392,200,402.34,190.32,405c-6.45-4.31-10.66-6.61-10.66-6.61"/><path class="cls-1" d="M177.94,454.34c-4.86-1,2.22-10.51,3-20.79s1-17-.42-22.55a51.91,51.91,0,0,1-1.05-12.58,120.76,120.76,0,0,1,11.35,6.89c-.6,11.43,2.53,17.59.33,26.42s-8.35,23.59-13.22,22.61"/><path class="cls-1" d="M164.12,391.56a94.49,94.49,0,0,0,13.27-7.91c6.24-4.57,19.47-8.75,25.08-11.06,5.87-2.41,4.19,7.9-2.72,9.56s-13.47,12.86-24,14.19a70.4,70.4,0,0,0-11.62-4.78"/><path class="cls-1" d="M160.31,439.28c.12-4.74,1-18.28.46-22.87s4.94-16.13,2.68-24.34c7,1.69,9.91,3.49,12.29,4.27,1.79,6.83-8.61,24.7-8.25,33.58.7,17-7.3,14.09-7.18,9.36"/><path class="cls-1" d="M150.91,388.83s7.37-3,10.77-10.06,12.76-16.28,22-18,12.91,2.87,12.91,2.87S192,361.76,186,365.16s-8.61,10.78-14.91,14.84-7,10.32-8.76,11.21a107.8,107.8,0,0,0-11.39-2.38"/><path class="cls-1" d="M146.4,439.65c-2.62-2.82-4.38-9.53-3-14.35s.72-8.09,2.25-19.09,6.87-14.4,5.27-17.38a49,49,0,0,1,10.73,2.53s1.23,6-4.37,16.56S149,442.46,146.4,439.65"/><path class="cls-1" d="M122.52,389.23s21.42-11.29,25.89-17.3,8.77.47,3.61,5-6.22,9.23-15.47,11.35c4.61,2.36,7.15,12.83,3.24,22.69s-7.18-.24-6.61-8.25-10.66-13.52-10.66-13.52"/><path class="cls-2" d="M198.89,411.27l0-.06a.15.15,0,0,1,.1-.19c20.63-6.58,33.2-8.74,40.11-9.39,7.52-.71,10.12.13,10.22.16a.16.16,0,0,1,.1.2.16.16,0,0,1-.2.1c-.1,0-10.79-3.31-50.13,9.22A.17.17,0,0,1,198.89,411.27Z"/><path class="cls-2" d="M76.59,399.58a.1.1,0,0,1,0-.05.15.15,0,0,1,.1-.2,203.63,203.63,0,0,1,37.26-9.28c19.21-2.88,46.32-3.74,66.34,8.52,30.36,18.59,43.44,31.67,63.61,63.6a.15.15,0,1,1-.26.16c-20.14-31.87-33.2-44.93-63.52-63.49-19.93-12.21-47-11.35-66.13-8.48a204,204,0,0,0-37.19,9.26A.15.15,0,0,1,76.59,399.58Z"/><path class="cls-2" d="M211.28,421.32a.18.18,0,0,1,0-.09.16.16,0,0,1,.14-.18c20.91-2.33,42.94,7.47,43.16,7.57a.16.16,0,0,1-.13.29c-.22-.1-22.17-9.87-43-7.55A.15.15,0,0,1,211.28,421.32Z"/><path class="cls-2" d="M203.56,447a.13.13,0,0,1,0-.09c0-.18-1.81-18.6,1.2-30.69a.15.15,0,0,1,.19-.11.16.16,0,0,1,.11.19c-3,12-1.21,30.39-1.19,30.58a.16.16,0,0,1-.14.17A.13.13,0,0,1,203.56,447Z"/><path class="cls-2" d="M186.22,402.72h0a.15.15,0,0,1,0-.22c.2-.18,20.85-17.88,45.48-16.54a.16.16,0,0,1,.14.17.14.14,0,0,1-.16.14c-24.5-1.33-45,16.29-45.26,16.47A.17.17,0,0,1,186.22,402.72Z"/><path class="cls-2" d="M181.13,445.32a.17.17,0,0,1,0-.17c3.34-7.86,4.24-19.13,4.4-27.2.18-8.75-.44-15.72-.45-15.79a.15.15,0,0,1,.14-.17.15.15,0,0,1,.17.14c0,.07.63,7.06.46,15.83-.17,8.09-1.07,19.4-4.43,27.31a.14.14,0,0,1-.2.08Z"/><path class="cls-2" d="M170.85,394.25a.15.15,0,0,1,0-.21c4.53-5.18,13.87-9.26,21.37-12.54,4.5-2,8.38-3.66,10.56-5.24a.16.16,0,0,1,.19.25c-2.21,1.6-6.11,3.31-10.62,5.28-7.48,3.26-16.78,7.33-21.26,12.46a.16.16,0,0,1-.22,0Z"/><path class="cls-2" d="M165,437.82a.17.17,0,0,1,0-.18c1-1.89.7-5.3.35-8.91-.44-4.52-1-9.64,1-13.4,3.37-6.64,2.55-21.66,2.54-21.82a.16.16,0,0,1,.15-.16.15.15,0,0,1,.16.15c0,.15.84,15.25-2.57,22-1.86,3.67-1.37,8.74-.93,13.22.37,3.81.69,7.11-.38,9.09a.17.17,0,0,1-.22.06Z"/><path class="cls-2" d="M157.4,390.16l0,0a.17.17,0,0,1,.08-.21c3.58-1.5,7.43-6.93,11.15-12.18,3.86-5.44,7.84-11.06,11.67-12.6a.16.16,0,0,1,.2.09.14.14,0,0,1-.08.2c-3.74,1.51-7.7,7.09-11.53,12.49s-7.63,10.76-11.29,12.29A.14.14,0,0,1,157.4,390.16Z"/><path class="cls-2" d="M146.28,435.34a.15.15,0,0,1,0-.18c1.86-3.53,2.29-10.88,2.75-18.66.6-10.25,1.29-21.87,5.5-26.88a.17.17,0,0,1,.22,0,.15.15,0,0,1,0,.22c-4.15,4.93-4.83,16.5-5.43,26.7-.46,7.81-.89,15.19-2.79,18.78a.15.15,0,0,1-.21.07Z"/><path class="cls-2" d="M131.42,388.64h0a.16.16,0,0,1,0-.22,75.92,75.92,0,0,1,7.28-5.41c4.82-3.3,9.38-6.42,11.47-10.63a.16.16,0,0,1,.21-.07.15.15,0,0,1,.07.21c-2.13,4.29-6.72,7.43-11.58,10.75a77,77,0,0,0-7.25,5.39A.15.15,0,0,1,131.42,388.64Z"/><path class="cls-2" d="M137.19,409.63a.15.15,0,0,1,0-.16c3-7.17-1.9-18-7.57-20.59a.15.15,0,0,1-.07-.21.15.15,0,0,1,.2-.07c5.79,2.62,10.76,13.68,7.73,21a.14.14,0,0,1-.2.08A.13.13,0,0,1,137.19,409.63Z"/><path class="cls-1" d="M107.24,477.77c-3.54-4.57,6.06-11.49,15.21-3.85s26.86,7.93,25.76,5.24S136.34,475.4,130.87,467s-11.31-16.8-8.33-24.75c6.72,2.55,9,.84,13.4,6.33s3.91,10,9.53,15.59,5,10.08,9.32,14.56,6.15-.93,5.28-9.66-.61-12.81,1.72-18.29,5.3-10,6.85-2.17-1.37,13.26.4,20.82-3.58,17.07,1.92,27.06c-10-4.86-11.78-7-25.14-7s-32.86-4.38-38.58-11.75"/><path class="cls-1" d="M173.84,498.38s-11.31,2.43-23.14,5.66-32.14,10.18-40.76,1.74,2.62-2.57,14.07-7.77,15.87-1.3,23.22-3.55S162,490.84,162,490.84Z"/><path class="cls-1" d="M188.43,507.76a79.32,79.32,0,0,0-13.36,7.33c-6.62,4.57-10,5.91-17.77,7.29s-15.33,5.52-24.48,1.3-3.4-4,3.89-6.8,11.63-.09,17.43-1.35c6.11-1.33,13.93-11.67,23.63-14.37,6.45,4.31,10.66,6.6,10.66,6.6"/><path class="cls-1" d="M190.15,451.85c4.86,1-2.22,10.52-3,20.8s-1,17,.42,22.55a51.91,51.91,0,0,1,1.05,12.58,120.76,120.76,0,0,1-11.35-6.89c.6-11.44-2.53-17.6-.32-26.42s8.34-23.59,13.21-22.62"/><path class="cls-1" d="M204,514.64a94.07,94.07,0,0,0-13.26,7.91c-6.25,4.57-19.48,8.75-25.09,11.06-5.87,2.41-4.18-7.9,2.72-9.56s13.47-12.86,24-14.19A70.4,70.4,0,0,0,204,514.64"/><path class="cls-1" d="M207.78,466.92c-.12,4.73-1,18.28-.45,22.86s-5,16.14-2.69,24.35c-7-1.69-9.9-3.49-12.29-4.27-1.79-6.83,8.61-24.71,8.25-33.58-.7-17,7.3-14.09,7.18-9.36"/><path class="cls-1" d="M217.18,517.36s-7.37,3-10.77,10.07-12.76,16.28-22,18-12.91-2.87-12.91-2.87,4.55,1.85,10.62-1.55,8.61-10.78,14.91-14.84,7-10.32,8.76-11.21a106.43,106.43,0,0,0,11.39,2.37"/><path class="cls-1" d="M221.69,466.55c2.62,2.81,4.38,9.53,3,14.35S224,489,222.45,500s-6.87,14.4-5.27,17.37a48.59,48.59,0,0,1-10.73-2.52s-1.23-6,4.37-16.57,8.24-34.54,10.87-31.72"/><path class="cls-1" d="M245.58,517s-21.43,11.29-25.89,17.3-8.78-.47-3.62-5,6.22-9.23,15.47-11.35c-4.6-2.36-7.15-12.84-3.24-22.69s7.18.24,6.61,8.25S245.58,517,245.58,517"/><path class="cls-2" d="M169.2,494.93a.09.09,0,0,1,0,.06.15.15,0,0,1-.1.19c-20.63,6.58-33.2,8.73-40.11,9.39-7.52.71-10.12-.13-10.22-.17a.15.15,0,0,1-.1-.19.15.15,0,0,1,.2-.1c.1,0,10.79,3.31,50.14-9.23A.16.16,0,0,1,169.2,494.93Z"/><path class="cls-2" d="M291.51,506.62l0,.05a.16.16,0,0,1-.09.2,203.69,203.69,0,0,1-37.27,9.27c-19.21,2.89-46.32,3.75-66.34-8.51C157.48,489,144.4,476,124.23,444a.15.15,0,0,1,0-.22.15.15,0,0,1,.21.05c20.15,31.88,33.21,44.94,63.52,63.5,19.93,12.21,47,11.35,66.13,8.48a204.5,204.5,0,0,0,37.2-9.26A.14.14,0,0,1,291.51,506.62Z"/><path class="cls-2" d="M156.81,484.88a.12.12,0,0,1,0,.09.16.16,0,0,1-.13.18c-20.92,2.33-42.95-7.47-43.17-7.57a.16.16,0,0,1,.13-.29c.22.1,22.17,9.86,43,7.54A.19.19,0,0,1,156.81,484.88Z"/><path class="cls-2" d="M164.53,459.22a.1.1,0,0,1,0,.09c0,.18,1.81,18.6-1.2,30.68a.15.15,0,0,1-.19.12.16.16,0,0,1-.11-.19c3-12,1.21-30.4,1.19-30.58a.16.16,0,0,1,.14-.17A.13.13,0,0,1,164.53,459.22Z"/><path class="cls-2" d="M181.87,503.48h0a.16.16,0,0,1,0,.22c-.21.18-20.86,17.87-45.48,16.54a.16.16,0,0,1-.15-.17.16.16,0,0,1,.16-.15c24.5,1.33,45.05-16.28,45.26-16.46A.16.16,0,0,1,181.87,503.48Z"/><path class="cls-2" d="M187,460.88a.17.17,0,0,1,0,.17c-3.34,7.86-4.24,19.13-4.4,27.2C182.41,497,183,504,183,504a.16.16,0,0,1-.14.17.15.15,0,0,1-.17-.14c0-.07-.63-7.06-.45-15.83.16-8.09,1.06-19.4,4.42-27.31a.16.16,0,0,1,.2-.09Z"/><path class="cls-2" d="M197.25,511.94a.17.17,0,0,1,0,.21c-4.53,5.19-13.87,9.27-21.37,12.55-4.5,2-8.38,3.66-10.56,5.24a.16.16,0,0,1-.19-.25c2.21-1.6,6.11-3.31,10.62-5.28,7.48-3.26,16.78-7.33,21.26-12.46a.16.16,0,0,1,.22,0Z"/><path class="cls-2" d="M203.09,468.38a.17.17,0,0,1,0,.18c-1,1.89-.7,5.3-.35,8.91.45,4.52,1,9.64-1,13.39-3.37,6.65-2.55,21.67-2.54,21.82a.16.16,0,0,1-.15.17.16.16,0,0,1-.16-.15c0-.15-.84-15.26,2.57-22,1.87-3.67,1.37-8.74.93-13.22-.37-3.82-.69-7.11.39-9.09a.15.15,0,0,1,.21-.06Z"/><path class="cls-2" d="M210.69,516l0,.05a.17.17,0,0,1-.08.21c-3.58,1.5-7.43,6.93-11.15,12.18-3.86,5.44-7.84,11.06-11.67,12.59a.14.14,0,0,1-.2-.08.17.17,0,0,1,.08-.21c3.74-1.5,7.7-7.08,11.53-12.48s7.63-10.76,11.29-12.29A.15.15,0,0,1,210.69,516Z"/><path class="cls-2" d="M221.81,470.86a.15.15,0,0,1,0,.18c-1.87,3.53-2.3,10.88-2.76,18.66-.6,10.25-1.29,21.87-5.5,26.88a.16.16,0,0,1-.24-.21c4.15-4.93,4.83-16.49,5.43-26.69.46-7.81.89-15.2,2.79-18.79a.16.16,0,0,1,.21-.06Z"/><path class="cls-2" d="M236.68,517.55h0a.15.15,0,0,1,0,.22,75.69,75.69,0,0,1-7.27,5.4c-4.83,3.31-9.39,6.42-11.48,10.63a.17.17,0,0,1-.21.08.16.16,0,0,1-.07-.21c2.13-4.29,6.72-7.43,11.58-10.75a77,77,0,0,0,7.25-5.39A.17.17,0,0,1,236.68,517.55Z"/><path class="cls-2" d="M230.9,496.56a.17.17,0,0,1,0,.17c-3,7.17,1.9,18,7.57,20.59a.15.15,0,0,1,.08.2.16.16,0,0,1-.21.08c-5.79-2.62-10.76-13.69-7.73-21a.15.15,0,0,1,.21-.08A.09.09,0,0,1,230.9,496.56Z"/></g></g></svg>