<svg xmlns="http://www.w3.org/2000/svg" xmlns:xlink="http://www.w3.org/1999/xlink" width="500" zoomAndPan="magnify" viewBox="0 0 375 374.999991" height="500" preserveAspectRatio="xMidYMid meet" version="1.0"><defs><g/><clipPath id="9db33d94f6"><path d="M 20.929688 25.484375 L 355 25.484375 L 355 346.980469 L 20.929688 346.980469 Z M 20.929688 25.484375 " clip-rule="nonzero"/></clipPath><clipPath id="6783f4ec12"><path d="M 188.25 25.484375 C 95.84375 25.484375 20.929688 97.453125 20.929688 186.234375 C 20.929688 275.011719 95.84375 346.980469 188.25 346.980469 C 280.65625 346.980469 355.570312 275.011719 355.570312 186.234375 C 355.570312 97.453125 280.65625 25.484375 188.25 25.484375 Z M 188.25 25.484375 " clip-rule="nonzero"/></clipPath><clipPath id="58441e1e19"><path d="M 20.929688 25.488281 L 355.429688 25.488281 L 355.429688 346.972656 L 20.929688 346.972656 Z M 20.929688 25.488281 " clip-rule="nonzero"/></clipPath><clipPath id="5131986d3c"><path d="M 188.246094 25.488281 C 95.839844 25.488281 20.929688 97.453125 20.929688 186.230469 C 20.929688 275.007812 95.839844 346.972656 188.246094 346.972656 C 280.648438 346.972656 355.558594 275.007812 355.558594 186.230469 C 355.558594 97.453125 280.648438 25.488281 188.246094 25.488281 Z M 188.246094 25.488281 " clip-rule="nonzero"/></clipPath><clipPath id="295850c768"><path d="M 98.332031 99.683594 L 278.332031 99.683594 L 278.332031 279.683594 L 98.332031 279.683594 Z M 98.332031 99.683594 " clip-rule="nonzero"/></clipPath></defs><g clip-path="url(#9db33d94f6)"><g clip-path="url(#6783f4ec12)"><path fill="#faf8f3" d="M 20.929688 25.484375 L 354.984375 25.484375 L 354.984375 346.980469 L 20.929688 346.980469 Z M 20.929688 25.484375 " fill-opacity="1" fill-rule="nonzero"/></g></g><g clip-path="url(#58441e1e19)"><g clip-path="url(#5131986d3c)"><path stroke-linecap="butt" transform="matrix(0.75, 0, 0, 0.75, 20.930557, 25.487824)" fill="none" stroke-linejoin="miter" d="M 223.087397 0.000610192 C 99.879056 0.000610192 -0.00115897 95.953741 -0.00115897 214.323541 C -0.00115897 332.69334 99.879056 428.646472 223.087397 428.646472 C 346.29053 428.646472 446.170745 332.69334 446.170745 214.323541 C 446.170745 95.953741 346.29053 0.000610192 223.087397 0.000610192 Z M 223.087397 0.000610192 " stroke="#000000" stroke-width="3" stroke-opacity="1" stroke-miterlimit="4"/></g></g><g clip-path="url(#295850c768)"><path fill="#000000" d="M 188.332031 279.683594 C 138.722656 279.683594 98.332031 239.296875 98.332031 189.683594 C 98.332031 140.074219 138.722656 99.683594 188.332031 99.683594 C 237.945312 99.683594 278.332031 140.074219 278.332031 189.683594 C 278.332031 239.296875 237.945312 279.683594 188.332031 279.683594 Z M 188.332031 101.015625 C 139.429688 101.015625 99.664062 140.78125 99.664062 189.683594 C 99.664062 238.585938 139.429688 278.355469 188.332031 278.355469 C 237.234375 278.355469 277.003906 238.585938 277.003906 189.683594 C 277.003906 140.78125 237.234375 101.015625 188.332031 101.015625 Z M 188.332031 101.015625 " fill-opacity="1" fill-rule="nonzero"/></g><path fill="#faf8f3" d="M 38.789062 80.679688 C 38.292969 80.289062 37.835938 79.859375 37.421875 79.382812 C 37.007812 78.90625 36.644531 78.394531 36.332031 77.847656 C 36.015625 77.300781 35.757812 76.726562 35.554688 76.128906 C 35.351562 75.535156 35.207031 74.921875 35.121094 74.296875 C 35.035156 73.671875 35.011719 73.046875 35.046875 72.414062 C 35.085938 71.785156 35.179688 71.164062 35.339844 70.554688 C 35.496094 69.945312 35.707031 69.351562 35.980469 68.785156 C 36.25 68.214844 36.574219 67.675781 36.949219 67.167969 C 39.171875 64.464844 41.46875 61.828125 43.839844 59.253906 C 46.207031 56.675781 48.648438 54.171875 51.15625 51.730469 C 53.664062 49.289062 56.238281 46.921875 58.878906 44.621094 C 61.515625 42.324219 64.21875 40.101562 66.980469 37.949219 C 69.742188 35.800781 72.558594 33.730469 75.4375 31.738281 C 78.3125 29.746094 81.242188 27.832031 84.222656 26 C 87.207031 24.167969 90.238281 22.421875 93.316406 20.757812 C 96.394531 19.09375 99.515625 17.515625 102.683594 16.023438 C 105.847656 14.535156 109.050781 13.128906 112.296875 11.816406 C 115.539062 10.5 118.816406 9.277344 122.128906 8.144531 C 125.4375 7.011719 128.777344 5.96875 132.144531 5.019531 C 135.515625 4.070312 138.90625 3.21875 142.324219 2.457031 C 145.738281 1.695312 149.171875 1.027344 152.625 0.457031 C 156.078125 -0.117188 159.542969 -0.59375 163.023438 -0.972656 C 166.5 -1.351562 169.988281 -1.636719 173.480469 -1.824219 C 176.976562 -2.011719 180.472656 -2.101562 183.972656 -2.097656 C 187.472656 -2.089844 190.96875 -1.988281 194.464844 -1.789062 C 197.957031 -1.589844 201.441406 -1.296875 204.921875 -0.90625 C 208.398438 -0.515625 211.863281 -0.0273438 215.3125 0.554688 C 218.761719 1.136719 222.195312 1.816406 225.609375 2.589844 C 229.023438 3.359375 232.410156 4.226562 235.777344 5.1875 C 239.140625 6.144531 242.476562 7.199219 245.785156 8.339844 C 249.09375 9.484375 252.367188 10.71875 255.605469 12.042969 C 258.84375 13.371094 262.042969 14.78125 265.207031 16.285156 C 268.367188 17.785156 271.484375 19.371094 274.558594 21.046875 C 277.628906 22.71875 280.65625 24.476562 283.632812 26.320312 C 286.609375 28.160156 289.53125 30.082031 292.402344 32.082031 C 295.269531 34.085938 298.082031 36.167969 300.839844 38.324219 C 303.59375 40.480469 306.285156 42.714844 308.917969 45.019531 C 311.550781 47.328125 314.117188 49.703125 316.617188 52.152344 C 319.117188 54.601562 321.546875 57.117188 323.910156 59.699219 C 326.273438 62.28125 328.558594 64.925781 330.777344 67.636719 C 331.148438 68.144531 331.46875 68.683594 331.738281 69.253906 C 332.007812 69.824219 332.222656 70.417969 332.375 71.027344 C 332.53125 71.640625 332.625 72.261719 332.660156 72.890625 C 332.695312 73.519531 332.667969 74.148438 332.578125 74.773438 C 332.492188 75.394531 332.347656 76.007812 332.140625 76.601562 C 331.9375 77.199219 331.675781 77.769531 331.359375 78.316406 C 331.042969 78.863281 330.675781 79.375 330.261719 79.847656 C 329.847656 80.324219 329.390625 80.753906 328.894531 81.140625 L 313.152344 92.714844 C 312.640625 93.121094 312.089844 93.46875 311.503906 93.761719 C 310.921875 94.058594 310.3125 94.289062 309.679688 94.460938 C 309.046875 94.632812 308.40625 94.742188 307.753906 94.785156 C 307.097656 94.828125 306.449219 94.804688 305.800781 94.714844 C 305.152344 94.628906 304.519531 94.476562 303.898438 94.261719 C 303.28125 94.042969 302.691406 93.769531 302.128906 93.433594 C 301.566406 93.101562 301.042969 92.714844 300.554688 92.273438 C 300.070312 91.835938 299.636719 91.351562 299.246094 90.824219 C 297.484375 88.726562 295.667969 86.679688 293.796875 84.683594 C 291.921875 82.6875 289.996094 80.742188 288.019531 78.847656 C 286.039062 76.957031 284.011719 75.117188 281.933594 73.335938 C 279.855469 71.554688 277.730469 69.828125 275.554688 68.164062 C 273.382812 66.496094 271.167969 64.890625 268.90625 63.34375 C 266.648438 61.796875 264.347656 60.3125 262.007812 58.890625 C 259.667969 57.472656 257.289062 56.117188 254.875 54.824219 C 252.460938 53.53125 250.011719 52.308594 247.53125 51.148438 C 245.050781 49.992188 242.539062 48.902344 240 47.878906 C 237.460938 46.855469 234.894531 45.90625 232.300781 45.023438 C 229.710938 44.140625 227.09375 43.328125 224.457031 42.589844 C 221.824219 41.851562 219.167969 41.183594 216.496094 40.585938 C 213.824219 39.992188 211.136719 39.46875 208.433594 39.019531 C 205.734375 38.570312 203.023438 38.195312 200.300781 37.894531 C 197.578125 37.59375 194.851562 37.363281 192.117188 37.210938 C 189.382812 37.058594 186.648438 36.980469 183.910156 36.976562 C 181.171875 36.972656 178.4375 37.039062 175.703125 37.183594 C 172.96875 37.328125 170.238281 37.546875 167.515625 37.839844 C 164.792969 38.136719 162.082031 38.5 159.378906 38.941406 C 156.675781 39.382812 153.988281 39.894531 151.3125 40.484375 C 148.640625 41.070312 145.984375 41.730469 143.34375 42.460938 C 140.707031 43.191406 138.089844 43.996094 135.496094 44.867188 C 132.898438 45.742188 130.332031 46.6875 127.785156 47.699219 C 125.242188 48.714844 122.730469 49.796875 120.246094 50.945312 C 117.757812 52.097656 115.308594 53.3125 112.890625 54.597656 C 110.472656 55.882812 108.089844 57.230469 105.746094 58.644531 C 103.398438 60.058594 101.09375 61.53125 98.828125 63.070312 C 96.566406 64.609375 94.34375 66.210938 92.164062 67.871094 C 89.988281 69.53125 87.855469 71.246094 85.773438 73.023438 C 83.6875 74.800781 81.652344 76.628906 79.667969 78.515625 C 77.683594 80.402344 75.753906 82.339844 73.875 84.332031 C 71.996094 86.324219 70.171875 88.367188 68.402344 90.457031 C 68.011719 90.984375 67.574219 91.464844 67.089844 91.902344 C 66.601562 92.339844 66.078125 92.726562 65.511719 93.058594 C 64.949219 93.390625 64.359375 93.664062 63.738281 93.878906 C 63.121094 94.089844 62.488281 94.242188 61.835938 94.328125 C 61.1875 94.414062 60.539062 94.433594 59.882812 94.386719 C 59.230469 94.34375 58.589844 94.234375 57.957031 94.0625 C 57.328125 93.886719 56.71875 93.652344 56.136719 93.355469 C 55.550781 93.058594 55.003906 92.707031 54.492188 92.300781 Z M 38.789062 80.679688 " fill-opacity="1" fill-rule="nonzero"/><g fill="#000000" fill-opacity="1"><g transform="translate(56.066137, 82.644984)"><g><path d="M -5.449219 -17.1875 C -13.078125 -8.945312 -1.308594 1.949219 6.324219 -6.289062 C 13.953125 -14.53125 2.183594 -25.429688 -5.449219 -17.1875 Z M -5.089844 -16.855469 C 0.800781 -23.214844 11.835938 -12.964844 5.964844 -6.621094 C 0.109375 -0.296875 -10.960938 -10.515625 -5.089844 -16.855469 Z M 12.140625 -11.785156 C 11.949219 -11.792969 11.765625 -11.699219 11.613281 -11.539062 C 11.433594 -11.339844 11.339844 -11.0625 11.453125 -10.824219 C 11.792969 -10.042969 13.152344 -9.785156 12.402344 -8.613281 C 11.304688 -7 8.828125 -7.628906 7.171875 -6.203125 C 6.535156 -5.660156 6.042969 -5.019531 5.90625 -4.113281 C 5.832031 -3.75 6.183594 -3.625 6.308594 -3.941406 C 6.371094 -4.117188 6.46875 -4.257812 6.601562 -4.402344 C 7.664062 -5.546875 10.546875 -5.140625 12.089844 -6.804688 C 13.019531 -7.808594 13.136719 -9.230469 13.070312 -10.558594 C 13.027344 -11.160156 12.816406 -11.757812 12.140625 -11.785156 Z M 12.140625 -11.785156 "/></g></g></g><g fill="#000000" fill-opacity="1"><g transform="translate(73.82231, 64.30987)"><g><path d="M 3.425781 -22.335938 L 0.121094 -19.703125 C -0.0703125 -19.550781 0.140625 -19.25 0.359375 -19.363281 C 1.066406 -19.773438 1.722656 -20.515625 2.488281 -19.59375 L 7.558594 -13.238281 C 9.640625 -10.621094 8.71875 -7.667969 6.734375 -6.085938 C 4.785156 -4.53125 1.804688 -4.277344 -0.367188 -6.921875 L -5.386719 -13.222656 C -6.195312 -14.234375 -5.519531 -14.519531 -4.945312 -15.132812 C -4.804688 -15.308594 -5.03125 -15.59375 -5.222656 -15.441406 L -9.003906 -12.429688 C -9.214844 -12.261719 -8.984375 -11.976562 -8.765625 -12.089844 C -8.058594 -12.496094 -7.605469 -13.105469 -6.800781 -12.09375 L -1.777344 -5.792969 C 0.667969 -2.6875 4.378906 -3.085938 6.859375 -5.0625 C 9.324219 -7.027344 10.558594 -10.570312 8.070312 -13.648438 L 3.050781 -19.949219 C 2.242188 -20.960938 3.148438 -21.429688 3.703125 -22.027344 C 3.863281 -22.21875 3.632812 -22.503906 3.425781 -22.335938 Z M 3.425781 -22.335938 "/></g></g></g><g fill="#000000" fill-opacity="1"><g transform="translate(93.226396, 49.608044)"><g><path d="M 9.757812 -9.058594 C 10.25 -7.503906 10.242188 -6.847656 8.0625 -5.550781 L 3.882812 -3.070312 C 3.417969 -2.851562 2.957031 -2.863281 2.582031 -3.492188 L -0.210938 -8.195312 L 3.96875 -10.675781 C 5.269531 -11.449219 5.964844 -10.949219 6.390625 -10.324219 C 6.535156 -10.128906 6.859375 -10.347656 6.734375 -10.558594 L 4.914062 -13.621094 C 4.777344 -13.855469 4.441406 -13.652344 4.546875 -13.433594 C 4.878906 -12.777344 4.996094 -11.910156 3.695312 -11.136719 L -0.484375 -8.65625 L -3.625 -13.945312 C -4.058594 -14.683594 -3.726562 -15.078125 -3.203125 -15.390625 L 0.09375 -17.347656 C 2.277344 -18.644531 3.085938 -18.472656 4.210938 -17.292969 C 4.367188 -17.128906 4.679688 -17.371094 4.578125 -17.539062 L 3.144531 -19.667969 C 3.105469 -19.730469 3.019531 -19.734375 2.933594 -19.6875 L -7.269531 -13.628906 C -7.5 -13.492188 -7.3125 -13.175781 -7.078125 -13.257812 C -6.308594 -13.546875 -5.8125 -14.09375 -5.152344 -12.984375 L 1.003906 -2.613281 C 1.652344 -1.519531 0.945312 -1.328125 0.324219 -0.789062 C 0.128906 -0.644531 0.316406 -0.328125 0.546875 -0.464844 L 11.230469 -6.808594 C 11.292969 -6.847656 11.367188 -6.917969 11.316406 -7.003906 L 10.125 -9.25 C 10.011719 -9.4375 9.6875 -9.269531 9.757812 -9.058594 Z M 9.757812 -9.058594 "/></g></g></g><g fill="#000000" fill-opacity="1"><g transform="translate(111.692954, 39.32685)"><g/></g></g><g fill="#000000" fill-opacity="1"><g transform="translate(123.12037, 34.13947)"><g><path d="M 12.257812 -9.816406 C 11.839844 -9.675781 11.609375 -9.289062 11.757812 -8.847656 C 11.929688 -8.339844 12.46875 -8.1875 13.050781 -7.839844 C 14 -7.3125 13.828125 -5.757812 12.578125 -5.339844 C 10.425781 -4.613281 8.765625 -7.636719 6.15625 -7.429688 C 8.964844 -8.65625 11.480469 -11.046875 10.390625 -14.289062 C 9.316406 -17.480469 5.800781 -18.128906 2.492188 -17.015625 L -4.21875 -14.757812 C -4.472656 -14.671875 -4.355469 -14.324219 -4.109375 -14.355469 C -3.304688 -14.496094 -2.671875 -14.917969 -2.261719 -13.691406 L 1.59375 -2.234375 C 2.003906 -1.007812 1.25 -0.960938 0.523438 -0.589844 C 0.308594 -0.464844 0.425781 -0.117188 0.679688 -0.203125 L 5.261719 -1.742188 C 5.492188 -1.820312 5.375 -2.167969 5.152344 -2.144531 C 4.324219 -1.996094 3.71875 -1.585938 3.304688 -2.8125 L -0.5625 -14.3125 C -0.835938 -15.121094 -0.40625 -15.449219 0.171875 -15.640625 L 0.0976562 -15.640625 C 0.234375 -15.6875 0.421875 -15.75 0.859375 -15.898438 C 4.632812 -17.167969 7.4375 -16.566406 8.433594 -13.601562 C 9.429688 -10.640625 7.265625 -8.1875 3.839844 -7.035156 C 3.472656 -6.910156 3.625 -6.988281 3.261719 -6.917969 C 2.851562 -6.832031 3.03125 -6.300781 3.441406 -6.464844 C 6.464844 -7.351562 9.117188 -2.835938 12.21875 -3.878906 C 14.230469 -4.554688 14.449219 -6.433594 13.929688 -8.058594 C 13.71875 -8.761719 13.273438 -10.15625 12.257812 -9.816406 Z M 12.257812 -9.816406 "/></g></g></g><g fill="#000000" fill-opacity="1"><g transform="translate(145.553818, 27.313494)"><g><path d="M 5.308594 -1.671875 C 4.464844 -1.640625 3.816406 -1.300781 3.546875 -2.539062 L 1 -14.328125 C 0.726562 -15.59375 1.464844 -15.527344 2.246094 -15.847656 C 2.472656 -15.945312 2.375 -16.296875 2.132812 -16.246094 L -2.566406 -15.230469 C -2.828125 -15.175781 -2.75 -14.816406 -2.503906 -14.820312 C -1.683594 -14.847656 -1.039062 -15.210938 -0.765625 -13.945312 L 1.78125 -2.160156 C 2.050781 -0.917969 1.316406 -0.957031 0.558594 -0.644531 C 0.328125 -0.570312 0.402344 -0.210938 0.667969 -0.269531 L 5.367188 -1.285156 C 5.605469 -1.335938 5.550781 -1.699219 5.308594 -1.671875 Z M 5.308594 -1.671875 "/></g></g></g><g fill="#000000" fill-opacity="1"><g transform="translate(158.69869, 24.607803)"><g><path d="M 14.023438 -4.460938 C 13.277344 -3.109375 12.175781 -1.644531 8.824219 -1.300781 C 0.324219 -0.425781 -0.988281 -15.113281 7.316406 -15.96875 C 8.117188 -16.050781 9.144531 -16.082031 9.949219 -15.894531 C 11.601562 -15.328125 11.417969 -14.5 11.800781 -13.902344 C 12.117188 -13.417969 12.527344 -13.265625 12.867188 -13.300781 C 13.570312 -13.371094 14.089844 -14.308594 13.21875 -15.152344 C 12.726562 -15.617188 11.28125 -16.304688 10.585938 -16.378906 C 9.605469 -16.621094 8.488281 -16.726562 7.25 -16.601562 C -3.894531 -15.453125 -2.261719 0.453125 8.886719 -0.691406 C 11.824219 -0.996094 13.605469 -2.308594 14.820312 -4.078125 C 15.121094 -4.5 14.816406 -4.859375 14.476562 -4.824219 C 14.328125 -4.8125 14.144531 -4.695312 14.023438 -4.460938 Z M 14.023438 -4.460938 "/></g></g></g><g fill="#000000" fill-opacity="1"><g transform="translate(181.444099, 22.697021)"><g><path d="M 17.457031 0.355469 C 16.65625 0.199219 15.917969 0.339844 15.453125 -0.757812 L 10.171875 -15.007812 C 9.324219 -15.214844 9.164062 -14.90625 8.816406 -14.164062 C 6.828125 -9.921875 4.835938 -5.683594 2.847656 -1.441406 C 2.28125 -0.21875 1.535156 -0.449219 0.699219 -0.359375 C 0.453125 -0.324219 0.46875 -0.078125 0.710938 -0.0664062 C 1.347656 -0.0390625 1.785156 -0.0195312 2.296875 0 L 2.296875 -0.0234375 L 2.859375 0 L 2.859375 0.0234375 C 3.394531 0.046875 4.371094 0.0898438 5.003906 0.117188 C 5.25 0.125 5.285156 -0.117188 5.042969 -0.175781 C 4.242188 -0.332031 2.992188 -0.214844 3.476562 -1.269531 L 4.5 -3.472656 L 12.570312 -3.128906 C 12.855469 -2.359375 13.140625 -1.613281 13.402344 -0.84375 C 13.796875 0.246094 12.972656 0.0429688 12.164062 0.128906 C 11.917969 0.167969 11.90625 0.410156 12.175781 0.421875 C 12.808594 0.449219 13.371094 0.472656 13.90625 0.496094 L 13.910156 0.472656 L 15.8125 0.554688 L 15.808594 0.578125 C 16.347656 0.601562 16.785156 0.621094 17.417969 0.648438 C 17.664062 0.65625 17.675781 0.414062 17.457031 0.355469 Z M 4.765625 -4 L 8.660156 -12.261719 C 8.824219 -12.621094 8.996094 -12.617188 9.148438 -12.242188 C 10.199219 -9.386719 11.277344 -6.53125 12.351562 -3.675781 Z M 4.765625 -4 "/></g></g></g><g fill="#000000" fill-opacity="1"><g transform="translate(206.637888, 24.549792)"><g/></g></g><g fill="#000000" fill-opacity="1"><g transform="translate(219.001224, 26.556242)"><g><path d="M 16.921875 4.308594 C 16.175781 3.976562 15.425781 3.941406 15.21875 2.769531 L 13.3125 -12.308594 C 12.535156 -12.703125 12.308594 -12.4375 11.800781 -11.792969 C 8.902344 -8.113281 6 -4.4375 3.101562 -0.757812 C 2.273438 0.304688 1.597656 -0.0859375 0.761719 -0.191406 C 0.515625 -0.210938 0.472656 0.03125 0.707031 0.0976562 C 1.320312 0.265625 1.742188 0.382812 2.238281 0.523438 L 2.242188 0.5 L 2.785156 0.648438 L 2.777344 0.671875 C 3.296875 0.816406 4.234375 1.078125 4.847656 1.25 C 5.082031 1.316406 5.171875 1.085938 4.949219 0.972656 C 4.207031 0.640625 2.960938 0.46875 3.671875 -0.445312 L 5.167969 -2.363281 L 12.953125 -0.191406 C 13.054688 0.621094 13.164062 1.414062 13.246094 2.21875 C 13.378906 3.371094 12.625 2.984375 11.816406 2.886719 C 11.570312 2.867188 11.503906 3.105469 11.761719 3.175781 C 12.375 3.347656 12.914062 3.496094 13.433594 3.640625 L 13.4375 3.617188 L 15.273438 4.128906 L 15.265625 4.152344 C 15.785156 4.296875 16.207031 4.414062 16.816406 4.585938 C 17.054688 4.648438 17.117188 4.414062 16.921875 4.308594 Z M 5.546875 -2.8125 L 11.21875 -9.976562 C 11.457031 -10.289062 11.625 -10.246094 11.691406 -9.847656 C 12.066406 -6.828125 12.464844 -3.800781 12.863281 -0.777344 Z M 5.546875 -2.8125 "/></g></g></g><g fill="#000000" fill-opacity="1"><g transform="translate(243.022958, 33.851166)"><g><path d="M 15.667969 1.058594 C 15.265625 0.882812 14.832031 1.011719 14.644531 1.433594 C 14.425781 1.925781 14.722656 2.402344 14.914062 3.050781 C 15.257812 4.082031 14.078125 5.109375 12.875 4.574219 C 10.800781 3.652344 11.621094 0.304688 9.558594 -1.308594 C 12.457031 -0.3125 15.929688 -0.375 17.316406 -3.496094 C 18.6875 -6.574219 16.535156 -9.429688 13.34375 -10.847656 L 6.875 -13.722656 C 6.628906 -13.832031 6.480469 -13.496094 6.683594 -13.351562 C 7.371094 -12.914062 8.117188 -12.796875 7.59375 -11.613281 L 2.683594 -0.570312 C 2.160156 0.613281 1.570312 0.136719 0.785156 -0.078125 C 0.539062 -0.132812 0.390625 0.199219 0.636719 0.308594 L 5.054688 2.273438 C 5.277344 2.371094 5.425781 2.039062 5.246094 1.902344 C 4.535156 1.457031 3.808594 1.347656 4.335938 0.164062 L 9.265625 -10.925781 C 9.609375 -11.703125 10.148438 -11.652344 10.707031 -11.40625 L 10.648438 -11.457031 C 10.785156 -11.398438 10.960938 -11.316406 11.386719 -11.128906 C 15.023438 -9.511719 16.679688 -7.171875 15.410156 -4.316406 C 14.140625 -1.460938 10.890625 -1.117188 7.589844 -2.585938 C 7.230469 -2.742188 7.398438 -2.695312 7.082031 -2.890625 C 6.722656 -3.101562 6.496094 -2.589844 6.90625 -2.433594 C 9.734375 -1.042969 8.632812 4.078125 11.625 5.40625 C 13.5625 6.269531 14.996094 5.035156 15.710938 3.484375 C 16.03125 2.824219 16.648438 1.496094 15.667969 1.058594 Z M 15.667969 1.058594 "/></g></g></g><g fill="#000000" fill-opacity="1"><g transform="translate(264.117778, 43.831641)"><g><path d="M 12.550781 4.441406 C 11.40625 5.597656 10.820312 5.898438 8.660156 4.5625 L 4.523438 2.015625 C 4.113281 1.703125 3.90625 1.289062 4.292969 0.667969 L 7.164062 -3.988281 L 11.296875 -1.4375 C 12.585938 -0.644531 12.46875 0.203125 12.113281 0.871094 C 12.003906 1.089844 12.351562 1.277344 12.476562 1.066406 L 14.347656 -1.964844 C 14.488281 -2.195312 14.15625 -2.398438 14.007812 -2.203125 C 13.582031 -1.605469 12.867188 -1.101562 11.578125 -1.894531 L 7.445312 -4.445312 L 10.671875 -9.679688 C 11.121094 -10.410156 11.628906 -10.296875 12.148438 -9.976562 L 15.410156 -7.964844 C 17.570312 -6.632812 17.796875 -5.835938 17.273438 -4.292969 C 17.199219 -4.078125 17.558594 -3.914062 17.660156 -4.082031 L 18.882812 -6.339844 C 18.921875 -6.402344 18.882812 -6.484375 18.800781 -6.535156 L 8.699219 -12.761719 C 8.472656 -12.902344 8.28125 -12.589844 8.460938 -12.421875 C 9.070312 -11.875 9.789062 -11.691406 9.109375 -10.589844 L 2.78125 -0.320312 C 2.113281 0.757812 1.613281 0.21875 0.851562 -0.078125 C 0.628906 -0.183594 0.4375 0.125 0.667969 0.269531 L 11.246094 6.789062 C 11.308594 6.828125 11.402344 6.859375 11.453125 6.777344 L 12.890625 4.679688 C 13.003906 4.492188 12.707031 4.277344 12.550781 4.441406 Z M 12.550781 4.441406 "/></g></g></g><g fill="#000000" fill-opacity="1"><g transform="translate(281.760059, 55.214955)"><g><path d="M 15.734375 -6.96875 L 10.222656 -11.449219 C 10.03125 -11.601562 9.78125 -11.335938 9.941406 -11.140625 C 10.507812 -10.523438 11.179688 -10.230469 10.363281 -9.226562 L 2.742188 0.152344 C 1.925781 1.15625 1.496094 0.558594 0.777344 0.128906 C 0.554688 0.0117188 0.34375 0.3125 0.535156 0.464844 L 4.285156 3.515625 C 4.472656 3.667969 4.722656 3.402344 4.566406 3.207031 C 4 2.589844 3.324219 2.296875 4.140625 1.292969 L 11.796875 -8.125 C 12.335938 -8.785156 12.84375 -8.59375 13.316406 -8.210938 L 13.273438 -8.273438 C 13.386719 -8.183594 13.539062 -8.058594 13.917969 -7.75 C 16.988281 -5.257812 17.976562 -2.5625 16.003906 -0.140625 C 14.03125 2.285156 10.804688 1.765625 8 -0.511719 C 7.714844 -0.742188 7.84375 -0.667969 7.589844 -0.9375 C 7.300781 -1.238281 6.960938 -0.820312 7.300781 -0.542969 L 7.808594 -0.164062 C 10.273438 2.34375 14.933594 4.464844 17.628906 1.152344 C 19.753906 -1.464844 18.425781 -4.78125 15.734375 -6.96875 Z M 15.734375 -6.96875 "/></g></g></g><g fill="#000000" fill-opacity="1"><g transform="translate(298.515777, 69.337895)"><g><path d="M 12.128906 12.558594 C 11.671875 11.882812 11.050781 11.460938 11.492188 10.355469 L 17.796875 -3.472656 C 17.339844 -4.214844 17.007812 -4.109375 16.238281 -3.828125 C 11.835938 -2.222656 7.4375 -0.621094 3.035156 0.984375 C 1.773438 1.453125 1.402344 0.765625 0.75 0.238281 C 0.550781 0.0898438 0.386719 0.273438 0.550781 0.453125 C 0.984375 0.921875 1.28125 1.242188 1.628906 1.621094 L 1.648438 1.601562 L 2.027344 2.015625 L 2.007812 2.03125 C 2.375 2.425781 3.035156 3.144531 3.46875 3.609375 C 3.632812 3.789062 3.828125 3.640625 3.699219 3.429688 C 3.242188 2.753906 2.273438 1.957031 3.359375 1.550781 L 5.640625 0.707031 L 11.121094 6.644531 C 10.78125 7.390625 10.457031 8.121094 10.101562 8.851562 C 9.609375 9.902344 9.171875 9.175781 8.535156 8.667969 C 8.332031 8.519531 8.15625 8.6875 8.335938 8.882812 C 8.765625 9.351562 9.148438 9.761719 9.511719 10.15625 L 9.53125 10.140625 L 10.824219 11.539062 L 10.804688 11.554688 C 11.167969 11.949219 11.46875 12.273438 11.898438 12.738281 C 12.0625 12.917969 12.242188 12.753906 12.128906 12.558594 Z M 6.199219 0.523438 L 14.789062 -2.589844 C 15.15625 -2.730469 15.273438 -2.605469 15.121094 -2.230469 C 13.851562 0.535156 12.601562 3.316406 11.351562 6.101562 Z M 6.199219 0.523438 "/></g></g></g><path fill="#faf8f3" d="M 365.53125 195.46875 C 365.855469 195.472656 366.175781 195.511719 366.492188 195.578125 C 366.808594 195.648438 367.117188 195.746094 367.414062 195.875 C 367.710938 196.003906 367.992188 196.160156 368.261719 196.34375 C 368.527344 196.527344 368.773438 196.734375 369 196.964844 C 369.226562 197.199219 369.429688 197.449219 369.609375 197.71875 C 369.785156 197.992188 369.933594 198.277344 370.058594 198.578125 C 370.179688 198.878906 370.269531 199.1875 370.332031 199.507812 C 370.394531 199.824219 370.421875 200.144531 370.421875 200.46875 C 370.328125 203.390625 370.164062 206.308594 369.933594 209.222656 C 369.699219 212.136719 369.394531 215.042969 369.023438 217.941406 C 368.648438 220.839844 368.207031 223.726562 367.695312 226.605469 C 367.183594 229.480469 366.601562 232.34375 365.953125 235.195312 C 365.304688 238.042969 364.585938 240.875 363.800781 243.691406 C 363.015625 246.507812 362.160156 249.300781 361.242188 252.074219 C 360.320312 254.847656 359.332031 257.597656 358.28125 260.324219 C 357.226562 263.050781 356.109375 265.753906 354.929688 268.425781 C 353.746094 271.097656 352.5 273.738281 351.191406 276.351562 C 349.878906 278.964844 348.507812 281.546875 347.074219 284.09375 C 345.640625 286.640625 344.148438 289.148438 342.59375 291.625 C 341.039062 294.101562 339.425781 296.535156 337.753906 298.933594 C 336.082031 301.332031 334.351562 303.6875 332.566406 306 C 330.785156 308.316406 328.945312 310.585938 327.050781 312.8125 C 325.15625 315.035156 323.207031 317.214844 321.210938 319.347656 C 319.210938 321.480469 317.160156 323.5625 315.0625 325.59375 C 312.964844 327.628906 310.816406 329.609375 308.621094 331.542969 C 306.425781 333.472656 304.1875 335.347656 301.902344 337.171875 C 299.617188 338.992188 297.289062 340.757812 294.921875 342.46875 C 292.550781 344.179688 290.140625 345.832031 287.691406 347.425781 C 285.242188 349.023438 282.757812 350.558594 280.234375 352.03125 C 277.710938 353.507812 275.152344 354.921875 272.5625 356.273438 C 269.96875 357.625 267.347656 358.914062 264.695312 360.140625 C 262.042969 361.363281 259.359375 362.527344 256.652344 363.625 C 253.941406 364.71875 251.210938 365.75 248.449219 366.71875 C 245.691406 367.683594 242.910156 368.582031 240.109375 369.414062 C 237.308594 370.242188 234.488281 371.007812 231.648438 371.703125 C 228.8125 372.398438 225.957031 373.027344 223.089844 373.585938 C 220.21875 374.144531 217.339844 374.632812 214.445312 375.054688 C 211.554688 375.472656 208.652344 375.824219 205.746094 376.105469 C 202.835938 376.386719 199.921875 376.597656 197.003906 376.738281 C 194.082031 376.878906 191.164062 376.949219 188.238281 376.949219 C 185.316406 376.949219 182.394531 376.878906 179.476562 376.738281 C 176.558594 376.597656 173.644531 376.386719 170.734375 376.105469 C 167.824219 375.824219 164.925781 375.472656 162.03125 375.050781 C 159.140625 374.632812 156.257812 374.144531 153.390625 373.582031 C 150.523438 373.023438 147.667969 372.398438 144.828125 371.703125 C 141.992188 371.003906 139.171875 370.242188 136.371094 369.410156 C 133.566406 368.578125 130.789062 367.679688 128.027344 366.714844 C 125.269531 365.746094 122.535156 364.714844 119.828125 363.621094 C 117.117188 362.523438 114.4375 361.359375 111.785156 360.136719 C 109.132812 358.910156 106.507812 357.621094 103.917969 356.265625 C 101.328125 354.914062 98.769531 353.5 96.246094 352.027344 C 93.722656 350.550781 91.238281 349.015625 88.789062 347.421875 C 86.339844 345.828125 83.929688 344.175781 81.5625 342.464844 C 79.191406 340.753906 76.863281 338.984375 74.578125 337.164062 C 72.292969 335.339844 70.054688 333.464844 67.859375 331.535156 C 65.664062 329.605469 63.519531 327.621094 61.417969 325.589844 C 59.320312 323.554688 57.273438 321.472656 55.273438 319.339844 C 53.273438 317.207031 51.328125 315.027344 49.433594 312.800781 C 47.539062 310.578125 45.699219 308.304688 43.914062 305.992188 C 42.128906 303.679688 40.402344 301.320312 38.730469 298.925781 C 37.058594 296.527344 35.445312 294.089844 33.890625 291.617188 C 32.335938 289.140625 30.84375 286.628906 29.410156 284.082031 C 27.976562 281.535156 26.605469 278.957031 25.292969 276.34375 C 23.984375 273.730469 22.738281 271.085938 21.558594 268.414062 C 20.375 265.742188 19.257812 263.042969 18.203125 260.316406 C 17.152344 257.589844 16.167969 254.839844 15.246094 252.066406 C 14.324219 249.289062 13.472656 246.496094 12.6875 243.679688 C 11.902344 240.867188 11.183594 238.035156 10.535156 235.183594 C 9.882812 232.335938 9.304688 229.472656 8.792969 226.59375 C 8.28125 223.714844 7.839844 220.828125 7.464844 217.929688 C 7.09375 215.03125 6.789062 212.125 6.554688 209.210938 C 6.324219 206.296875 6.160156 203.378906 6.066406 200.460938 C 6.066406 200.136719 6.097656 199.8125 6.15625 199.496094 C 6.21875 199.175781 6.3125 198.867188 6.433594 198.566406 C 6.554688 198.265625 6.703125 197.980469 6.882812 197.710938 C 7.058594 197.4375 7.261719 197.1875 7.488281 196.953125 C 7.714844 196.722656 7.960938 196.515625 8.230469 196.332031 C 8.496094 196.148438 8.777344 195.992188 9.078125 195.863281 C 9.375 195.734375 9.679688 195.636719 10 195.570312 C 10.316406 195.5 10.636719 195.460938 10.960938 195.457031 L 34.207031 195.355469 C 34.539062 195.347656 34.867188 195.375 35.191406 195.433594 C 35.515625 195.492188 35.832031 195.582031 36.140625 195.703125 C 36.449219 195.824219 36.742188 195.972656 37.019531 196.152344 C 37.296875 196.332031 37.554688 196.539062 37.789062 196.769531 C 38.027344 197 38.238281 197.25 38.425781 197.523438 C 38.613281 197.796875 38.769531 198.085938 38.898438 198.390625 C 39.027344 198.695312 39.125 199.007812 39.191406 199.332031 C 39.257812 199.65625 39.292969 199.984375 39.292969 200.3125 C 39.382812 202.691406 39.53125 205.066406 39.734375 207.441406 C 39.9375 209.8125 40.199219 212.175781 40.515625 214.535156 C 40.832031 216.894531 41.207031 219.246094 41.636719 221.589844 C 42.066406 223.929688 42.550781 226.257812 43.09375 228.578125 C 43.636719 230.894531 44.230469 233.199219 44.882812 235.488281 C 45.535156 237.78125 46.242188 240.050781 47.003906 242.308594 C 47.761719 244.5625 48.578125 246.800781 49.445312 249.015625 C 50.3125 251.234375 51.234375 253.429688 52.207031 255.601562 C 53.179688 257.773438 54.203125 259.921875 55.28125 262.046875 C 56.355469 264.167969 57.480469 266.265625 58.660156 268.335938 C 59.835938 270.40625 61.058594 272.445312 62.335938 274.457031 C 63.609375 276.46875 64.929688 278.445312 66.300781 280.394531 C 67.667969 282.34375 69.082031 284.253906 70.542969 286.136719 C 72.003906 288.015625 73.507812 289.859375 75.058594 291.667969 C 76.605469 293.476562 78.199219 295.246094 79.832031 296.976562 C 81.464844 298.707031 83.140625 300.398438 84.855469 302.050781 C 86.570312 303.703125 88.324219 305.3125 90.117188 306.878906 C 91.90625 308.445312 93.734375 309.96875 95.601562 311.449219 C 97.464844 312.929688 99.367188 314.363281 101.300781 315.75 C 103.234375 317.140625 105.199219 318.480469 107.195312 319.773438 C 109.195312 321.070312 111.222656 322.316406 113.28125 323.511719 C 115.335938 324.710938 117.421875 325.859375 119.535156 326.953125 C 121.648438 328.050781 123.785156 329.097656 125.949219 330.09375 C 128.109375 331.089844 130.296875 332.03125 132.503906 332.921875 C 134.710938 333.8125 136.941406 334.648438 139.1875 335.433594 C 141.4375 336.214844 143.703125 336.945312 145.984375 337.621094 C 148.269531 338.292969 150.566406 338.914062 152.878906 339.480469 C 155.191406 340.042969 157.515625 340.554688 159.851562 341.007812 C 162.191406 341.460938 164.535156 341.855469 166.890625 342.199219 C 169.25 342.539062 171.613281 342.824219 173.980469 343.050781 C 176.351562 343.28125 178.726562 343.449219 181.101562 343.5625 C 183.480469 343.679688 185.859375 343.734375 188.242188 343.734375 C 190.621094 343.734375 193 343.679688 195.378906 343.566406 C 197.757812 343.449219 200.128906 343.28125 202.5 343.050781 C 204.871094 342.824219 207.230469 342.539062 209.589844 342.199219 C 211.945312 341.859375 214.292969 341.460938 216.628906 341.007812 C 218.964844 340.554688 221.289062 340.046875 223.601562 339.480469 C 225.914062 338.917969 228.214844 338.296875 230.496094 337.621094 C 232.78125 336.945312 235.046875 336.21875 237.292969 335.433594 C 239.542969 334.652344 241.769531 333.816406 243.976562 332.925781 C 246.183594 332.035156 248.371094 331.09375 250.535156 330.097656 C 252.695312 329.101562 254.832031 328.054688 256.945312 326.957031 C 259.058594 325.863281 261.144531 324.714844 263.203125 323.515625 C 265.261719 322.320312 267.289062 321.074219 269.285156 319.78125 C 271.285156 318.484375 273.25 317.144531 275.183594 315.753906 C 277.117188 314.367188 279.015625 312.933594 280.882812 311.453125 C 282.746094 309.972656 284.574219 308.449219 286.367188 306.882812 C 288.160156 305.316406 289.914062 303.707031 291.628906 302.054688 C 293.34375 300.40625 295.015625 298.714844 296.652344 296.980469 C 298.285156 295.25 299.875 293.480469 301.425781 291.671875 C 302.976562 289.867188 304.480469 288.023438 305.941406 286.144531 C 307.402344 284.261719 308.816406 282.347656 310.1875 280.402344 C 311.554688 278.453125 312.875 276.476562 314.152344 274.464844 C 315.425781 272.453125 316.652344 270.414062 317.828125 268.34375 C 319.003906 266.273438 320.128906 264.175781 321.207031 262.054688 C 322.28125 259.929688 323.304688 257.78125 324.28125 255.609375 C 325.253906 253.4375 326.171875 251.242188 327.042969 249.023438 C 327.910156 246.808594 328.722656 244.570312 329.484375 242.316406 C 330.246094 240.058594 330.953125 237.789062 331.605469 235.5 C 332.253906 233.207031 332.851562 230.90625 333.394531 228.585938 C 333.933594 226.269531 334.421875 223.9375 334.851562 221.597656 C 335.28125 219.253906 335.65625 216.90625 335.972656 214.546875 C 336.289062 212.1875 336.550781 209.820312 336.753906 207.449219 C 336.957031 205.078125 337.105469 202.703125 337.195312 200.320312 C 337.195312 199.992188 337.230469 199.664062 337.296875 199.339844 C 337.363281 199.015625 337.460938 198.703125 337.589844 198.398438 C 337.71875 198.09375 337.878906 197.804688 338.066406 197.53125 C 338.25 197.257812 338.460938 197.007812 338.699219 196.777344 C 338.9375 196.546875 339.195312 196.339844 339.472656 196.160156 C 339.75 195.980469 340.042969 195.832031 340.347656 195.710938 C 340.65625 195.589844 340.972656 195.5 341.296875 195.441406 C 341.625 195.382812 341.953125 195.355469 342.28125 195.363281 Z M 365.53125 195.46875 " fill-opacity="1" fill-rule="nonzero"/><g fill="#000000" fill-opacity="1"><g transform="translate(16.985998, 199.669226)"><g><path d="M 3.667969 12.796875 C 2.058594 12.539062 1.476562 12.234375 1.304688 9.699219 L 0.984375 4.851562 C 1 4.335938 1.214844 3.933594 1.945312 3.882812 L 7.402344 3.519531 L 7.726562 8.367188 C 7.828125 9.878906 7.070312 10.269531 6.316406 10.371094 C 6.078125 10.410156 6.125 10.796875 6.371094 10.78125 L 9.925781 10.546875 C 10.195312 10.527344 10.167969 10.136719 9.921875 10.128906 C 9.191406 10.128906 8.363281 9.84375 8.261719 8.332031 L 7.941406 3.484375 L 14.078125 3.074219 C 14.929688 3.019531 15.132812 3.496094 15.175781 4.101562 L 15.429688 7.929688 C 15.597656 10.460938 15.078125 11.109375 13.519531 11.578125 C 13.304688 11.640625 13.378906 12.027344 13.574219 12.015625 L 16.121094 11.699219 C 16.195312 11.695312 16.238281 11.617188 16.230469 11.519531 L 15.441406 -0.320312 C 15.425781 -0.585938 15.058594 -0.5625 15.027344 -0.316406 C 14.933594 0.496094 15.199219 1.191406 13.910156 1.277344 L 1.875 2.078125 C 0.609375 2.160156 0.757812 1.441406 0.558594 0.648438 C 0.515625 0.40625 0.152344 0.429688 0.167969 0.699219 L 0.996094 13.097656 C 1 13.171875 1.03125 13.265625 1.128906 13.261719 L 3.667969 13.214844 C 3.886719 13.199219 3.886719 12.832031 3.667969 12.796875 Z M 3.667969 12.796875 "/></g></g></g><g fill="#000000" fill-opacity="1"><g transform="translate(19.022595, 222.012977)"><g><path d="M 5.730469 12.117188 C 4.101562 12.074219 3.027344 11.667969 2.523438 9.179688 L 1.617188 4.679688 C 1.5625 4.167969 1.726562 3.738281 2.441406 3.59375 L 14.3125 1.199219 C 15.582031 0.941406 15.507812 1.679688 15.8125 2.464844 C 15.910156 2.695312 16.265625 2.597656 16.214844 2.359375 L 15.265625 -2.355469 C 15.210938 -2.621094 14.851562 -2.546875 14.855469 -2.296875 C 14.871094 -1.480469 15.222656 -0.828125 13.957031 -0.574219 L 2.132812 1.8125 C 0.890625 2.0625 0.941406 1.328125 0.636719 0.570312 C 0.566406 0.335938 0.207031 0.40625 0.257812 0.667969 L 2.714844 12.851562 C 2.730469 12.921875 2.773438 13.015625 2.871094 12.996094 L 5.789062 12.53125 C 6.003906 12.488281 5.957031 12.125 5.730469 12.117188 Z M 5.730469 12.117188 "/></g></g></g><g fill="#000000" fill-opacity="1"><g transform="translate(24.194685, 244.187371)"><g/></g></g><g fill="#000000" fill-opacity="1"><g transform="translate(28.5243, 257.212113)"><g><path d="M 11.03125 2.507812 C 10.378906 -0.695312 11.175781 -1.738281 12.292969 -2.226562 C 14.21875 -3.066406 15.78125 -1.5625 16.640625 0.40625 C 16.992188 1.210938 17.234375 2.0625 17.320312 2.878906 C 17.390625 4.5 16.558594 4.542969 16.109375 5.164062 C 15.875 5.480469 15.878906 5.796875 15.976562 6.023438 C 16.210938 6.558594 17.046875 6.699219 17.511719 5.753906 C 17.667969 5.441406 17.769531 5 17.847656 4.511719 L 17.828125 4.46875 C 17.886719 3.988281 17.886719 3.5625 17.839844 3.210938 C 17.761719 2.179688 17.5 1.09375 17.0625 0.0859375 C 15.898438 -2.574219 13.601562 -4.664062 10.828125 -3.449219 C 7.695312 -2.082031 9.089844 2.023438 9.65625 5.214844 C 10.703125 10.964844 5.074219 10.703125 3.066406 6.414062 C 2.269531 4.710938 1.96875 2.070312 3.128906 0.152344 C 3.25 -0.0625 3.257812 -0.222656 3.199219 -0.359375 C 3.054688 -0.695312 2.511719 -0.777344 2.285156 -0.199219 C 1.394531 2.402344 1.636719 4.480469 2.710938 6.941406 C 4 9.894531 6.449219 12.207031 9.382812 10.929688 C 12.671875 9.492188 11.691406 5.601562 11.03125 2.507812 Z M 11.03125 2.507812 "/></g></g></g><g fill="#000000" fill-opacity="1"><g transform="translate(38.110123, 277.961552)"><g><path d="M 9.550781 14.617188 C 9.230469 13.867188 8.699219 13.335938 9.339844 12.332031 L 18.132812 -0.0664062 C 17.824219 -0.882812 17.476562 -0.839844 16.667969 -0.707031 C 12.042969 0.0390625 7.421875 0.789062 2.796875 1.539062 C 1.46875 1.761719 1.234375 1.015625 0.691406 0.375 C 0.523438 0.191406 0.328125 0.34375 0.457031 0.550781 C 0.792969 1.089844 1.023438 1.460938 1.296875 1.898438 L 1.316406 1.882812 L 1.613281 2.359375 L 1.589844 2.375 C 1.875 2.828125 2.390625 3.660156 2.726562 4.199219 C 2.855469 4.40625 3.074219 4.296875 2.988281 4.0625 C 2.667969 3.316406 1.863281 2.347656 3.007812 2.152344 L 5.40625 1.753906 L 9.671875 8.617188 C 9.199219 9.285156 8.746094 9.941406 8.257812 10.589844 C 7.578125 11.53125 7.285156 10.738281 6.753906 10.117188 C 6.582031 9.9375 6.375 10.066406 6.519531 10.292969 C 6.851562 10.832031 7.148438 11.308594 7.433594 11.765625 L 7.453125 11.75 L 8.460938 13.367188 L 8.441406 13.382812 C 8.722656 13.835938 8.957031 14.210938 9.289062 14.75 C 9.417969 14.957031 9.628906 14.828125 9.550781 14.617188 Z M 5.988281 1.679688 L 15.011719 0.234375 C 15.398438 0.167969 15.492188 0.3125 15.269531 0.648438 C 13.503906 3.128906 11.753906 5.628906 10 8.125 Z M 5.988281 1.679688 "/></g></g></g><g fill="#000000" fill-opacity="1"><g transform="translate(52.848721, 300.23565)"><g><path d="M 13.089844 1.738281 C 14.039062 2.40625 15.785156 3.105469 17.3125 1.808594 C 19.359375 0.0742188 18.070312 -2.546875 16.726562 -4.128906 L 12.226562 -9.4375 C 12.070312 -9.621094 11.777344 -9.402344 11.894531 -9.1875 C 12.320312 -8.457031 12.945312 -8.058594 11.960938 -7.222656 C 8.90625 -4.636719 5.832031 -2.03125 2.757812 0.574219 C 1.789062 1.394531 1.480469 0.730469 0.832031 0.191406 C 0.65625 0.0195312 0.394531 0.273438 0.550781 0.460938 L 5.476562 6.273438 C 7.734375 8.933594 10.675781 9.800781 12.78125 8.019531 C 14.886719 6.234375 14.472656 3.863281 13.089844 1.738281 Z M 5.191406 5.105469 L 3.832031 3.503906 C 3.4375 3.039062 3.238281 2.535156 3.890625 1.984375 L 3.707031 2.105469 C 6.910156 -0.609375 10.113281 -3.324219 13.316406 -6.039062 L 13.164062 -5.878906 C 13.816406 -6.429688 14.261719 -6.167969 14.65625 -5.703125 C 15.050781 -5.238281 15.398438 -4.828125 15.902344 -4.230469 C 17.355469 -2.515625 17.722656 -0.652344 16.214844 0.628906 C 14.984375 1.667969 12.878906 1.375 11.550781 -0.191406 C 11.015625 -0.824219 10.808594 -1.03125 10.328125 -1.746094 C 9.992188 -2.257812 9.40625 -1.699219 9.792969 -1.324219 C 10.417969 -0.734375 10.621094 -0.457031 11.191406 0.214844 C 13.210938 2.597656 13.527344 5.046875 11.609375 6.675781 C 9.859375 8.15625 7.257812 7.546875 5.191406 5.105469 Z M 5.191406 5.105469 "/></g></g></g><g fill="#000000" fill-opacity="1"><g transform="translate(68.410165, 317.82794)"><g><path d="M 17.027344 -5.921875 C 8.578125 -13.320312 -1.984375 -1.253906 6.464844 6.144531 C 14.914062 13.542969 25.480469 1.472656 17.027344 -5.921875 Z M 6.785156 5.777344 C 0.300781 0.101562 10.203125 -11.25 16.707031 -5.554688 C 23.230469 0.152344 13.289062 11.472656 6.785156 5.777344 Z M 12.859375 0.839844 C 12.738281 0.574219 12.375 0.320312 12.375 0.0625 C 12.339844 -0.195312 12.648438 -0.476562 12.753906 -0.742188 C 12.84375 -0.957031 12.695312 -1.085938 12.476562 -0.984375 C 12.210938 -0.863281 11.957031 -0.5 11.695312 -0.5 C 11.441406 -0.464844 11.160156 -0.777344 10.894531 -0.878906 C 10.679688 -0.96875 10.550781 -0.820312 10.652344 -0.601562 C 10.773438 -0.335938 11.136719 -0.0820312 11.136719 0.175781 C 11.171875 0.433594 10.859375 0.714844 10.757812 0.980469 C 10.667969 1.195312 10.816406 1.324219 11.03125 1.222656 C 11.300781 1.101562 11.554688 0.738281 11.8125 0.738281 C 12.070312 0.703125 12.351562 1.015625 12.617188 1.117188 C 12.832031 1.207031 12.960938 1.058594 12.859375 0.839844 Z M 12.859375 0.839844 "/></g></g></g><g fill="#000000" fill-opacity="1"><g transform="translate(89.538427, 335.321353)"><g><path d="M 15.339844 3.355469 C 14.96875 3.121094 14.523438 3.183594 14.273438 3.578125 C 13.984375 4.03125 14.207031 4.546875 14.304688 5.214844 C 14.488281 6.289062 13.171875 7.128906 12.058594 6.421875 C 10.144531 5.203125 11.449219 2.011719 9.648438 0.113281 C 12.367188 1.523438 15.808594 1.976562 17.644531 -0.90625 C 19.453125 -3.75 17.742188 -6.890625 14.796875 -8.761719 L 8.820312 -12.558594 C 8.59375 -12.703125 8.398438 -12.394531 8.578125 -12.222656 C 9.195312 -11.6875 9.917969 -11.460938 9.222656 -10.367188 L 2.738281 -0.167969 C 2.046875 0.925781 1.53125 0.367188 0.785156 0.0351562 C 0.554688 -0.0507812 0.359375 0.257812 0.585938 0.402344 L 4.664062 2.992188 C 4.871094 3.125 5.066406 2.816406 4.90625 2.65625 C 4.273438 2.109375 3.570312 1.894531 4.265625 0.800781 L 10.773438 -9.4375 C 11.230469 -10.160156 11.753906 -10.03125 12.269531 -9.703125 L 12.222656 -9.761719 C 12.347656 -9.683594 12.511719 -9.578125 12.902344 -9.328125 C 16.261719 -7.195312 17.554688 -4.636719 15.878906 -2 C 14.203125 0.636719 10.933594 0.5 7.886719 -1.4375 C 7.554688 -1.648438 7.714844 -1.578125 7.429688 -1.816406 C 7.105469 -2.078125 6.804688 -1.605469 7.191406 -1.390625 C 9.78125 0.402344 7.9375 5.304688 10.699219 7.0625 C 12.492188 8.199219 14.089844 7.191406 15.027344 5.761719 C 15.4375 5.15625 16.246094 3.933594 15.339844 3.355469 Z M 15.339844 3.355469 "/></g></g></g><g fill="#000000" fill-opacity="1"><g transform="translate(110.772434, 347.894802)"><g/></g></g><g fill="#000000" fill-opacity="1"><g transform="translate(123.218419, 353.79401)"><g><path d="M 11.984375 -12.125 L 5.816406 -14.308594 C 5.5625 -14.398438 5.441406 -14.054688 5.65625 -13.925781 C 6.367188 -13.519531 7.105469 -13.488281 6.675781 -12.269531 C 5.597656 -9.230469 3.726562 -3.9375 2.648438 -0.902344 C 2.226562 0.296875 1.625 -0.125 0.816406 -0.253906 C 0.578125 -0.3125 0.453125 0.03125 0.707031 0.121094 L 6.875 2.304688 C 18.128906 6.289062 23.261719 -8.132812 11.984375 -12.125 Z M 6.65625 1.683594 L 5.042969 1.113281 C 4.46875 0.910156 4.050781 0.554688 4.335938 -0.25 L 8.394531 -11.710938 C 8.679688 -12.519531 9.195312 -12.515625 9.773438 -12.3125 L 11.40625 -11.734375 C 20.84375 -8.394531 16.230469 5.074219 6.65625 1.683594 Z M 6.65625 1.683594 "/></g></g></g><g fill="#000000" fill-opacity="1"><g transform="translate(147.269426, 361.572064)"><g><path d="M 13.3125 -0.15625 C 12.636719 1.324219 12.1875 1.808594 9.699219 1.300781 L 4.941406 0.332031 C 4.449219 0.183594 4.113281 -0.132812 4.257812 -0.851562 L 5.351562 -6.210938 L 10.109375 -5.242188 C 11.59375 -4.941406 11.773438 -4.105469 11.671875 -3.355469 C 11.644531 -3.109375 12.03125 -3.058594 12.082031 -3.296875 L 12.792969 -6.789062 C 12.847656 -7.050781 12.464844 -7.128906 12.390625 -6.894531 C 12.195312 -6.1875 11.703125 -5.464844 10.21875 -5.769531 L 5.457031 -6.738281 L 6.683594 -12.765625 C 6.855469 -13.601562 7.367188 -13.671875 7.964844 -13.550781 L 11.722656 -12.789062 C 14.210938 -12.28125 14.695312 -11.609375 14.738281 -9.980469 C 14.742188 -9.753906 15.132812 -9.726562 15.171875 -9.917969 L 15.542969 -12.457031 C 15.554688 -12.53125 15.492188 -12.59375 15.398438 -12.613281 L 3.769531 -14.976562 C 3.507812 -15.03125 3.433594 -14.671875 3.664062 -14.578125 C 4.425781 -14.273438 5.164062 -14.347656 4.902344 -13.078125 L 2.5 -1.261719 C 2.246094 -0.015625 1.589844 -0.347656 0.773438 -0.367188 C 0.527344 -0.390625 0.453125 -0.03125 0.71875 0.0234375 L 12.894531 2.5 C 12.96875 2.515625 13.066406 2.511719 13.085938 2.414062 L 13.714844 -0.0507812 C 13.757812 -0.265625 13.402344 -0.363281 13.3125 -0.15625 Z M 13.3125 -0.15625 "/></g></g></g><g fill="#000000" fill-opacity="1"><g transform="translate(169.218116, 365.361545)"><g/></g></g><g fill="#000000" fill-opacity="1"><g transform="translate(182.903173, 366.468066)"><g><path d="M 12.976562 -3.367188 C 12.628906 -1.773438 12.027344 -0.792969 9.488281 -0.761719 L 4.898438 -0.714844 C 4.386719 -0.757812 3.992188 -0.996094 3.984375 -1.726562 L 3.851562 -13.835938 C 3.839844 -15.132812 4.546875 -14.917969 5.375 -15.074219 C 5.621094 -15.125 5.59375 -15.492188 5.347656 -15.488281 L 0.539062 -15.4375 C 0.269531 -15.433594 0.273438 -15.066406 0.519531 -15.019531 C 1.324219 -14.882812 2.03125 -15.109375 2.046875 -13.816406 L 2.179688 -1.757812 C 2.191406 -0.488281 1.480469 -0.675781 0.679688 -0.519531 C 0.433594 -0.492188 0.4375 -0.125 0.707031 -0.128906 L 13.132812 -0.265625 C 13.207031 -0.265625 13.304688 -0.292969 13.300781 -0.390625 L 13.390625 -3.34375 C 13.390625 -3.566406 13.023438 -3.585938 12.976562 -3.367188 Z M 12.976562 -3.367188 "/></g></g></g><g fill="#000000" fill-opacity="1"><g transform="translate(205.90856, 365.74277)"><g><path d="M 6.332031 -16.882812 C -4.761719 -15.113281 -2.234375 0.726562 8.859375 -1.042969 C 19.949219 -2.8125 17.421875 -18.652344 6.332031 -16.882812 Z M 8.78125 -1.523438 C 0.269531 -0.167969 -2.128906 -15.039062 6.40625 -16.398438 C 14.964844 -17.765625 17.316406 -2.886719 8.78125 -1.523438 Z M 8.867188 -9.351562 C 8.582031 -9.429688 8.15625 -9.3125 7.957031 -9.476562 C 7.738281 -9.617188 7.71875 -10.03125 7.582031 -10.28125 C 7.472656 -10.488281 7.28125 -10.457031 7.21875 -10.226562 C 7.140625 -9.941406 7.257812 -9.515625 7.09375 -9.316406 C 6.953125 -9.09375 6.539062 -9.078125 6.289062 -8.9375 C 6.082031 -8.832031 6.113281 -8.640625 6.34375 -8.578125 C 6.628906 -8.5 7.054688 -8.617188 7.253906 -8.449219 C 7.476562 -8.3125 7.492188 -7.894531 7.632812 -7.644531 C 7.738281 -7.441406 7.929688 -7.472656 7.992188 -7.703125 C 8.070312 -7.988281 7.953125 -8.414062 8.121094 -8.613281 C 8.257812 -8.832031 8.675781 -8.851562 8.925781 -8.988281 C 9.128906 -9.097656 9.097656 -9.289062 8.867188 -9.351562 Z M 8.867188 -9.351562 "/></g></g></g><g fill="#000000" fill-opacity="1"><g transform="translate(232.640562, 360.557851)"><g/></g></g><g fill="#000000" fill-opacity="1"><g transform="translate(245.876361, 356.651729)"><g><path d="M 15.953125 -7.09375 C 15.164062 -6.894531 14.554688 -6.453125 13.667969 -7.246094 L 2.835938 -17.90625 C 1.980469 -17.734375 1.96875 -17.386719 1.964844 -16.566406 C 1.964844 -11.882812 1.964844 -7.199219 1.964844 -2.515625 C 1.972656 -1.167969 1.199219 -1.058594 0.480469 -0.625 C 0.273438 -0.484375 0.390625 -0.269531 0.617188 -0.363281 C 1.203125 -0.609375 1.605469 -0.777344 2.078125 -0.976562 L 2.070312 -0.996094 L 2.589844 -1.214844 L 2.597656 -1.191406 C 3.09375 -1.398438 3.996094 -1.777344 4.578125 -2.019531 C 4.804688 -2.113281 4.734375 -2.347656 4.488281 -2.300781 C 3.699219 -2.101562 2.617188 -1.464844 2.609375 -2.625 L 2.597656 -5.054688 L 10.054688 -8.171875 C 10.636719 -7.59375 11.214844 -7.042969 11.773438 -6.457031 C 12.59375 -5.636719 11.761719 -5.472656 11.066406 -5.050781 C 10.859375 -4.910156 10.953125 -4.683594 11.203125 -4.789062 C 11.789062 -5.035156 12.304688 -5.25 12.800781 -5.457031 L 12.792969 -5.480469 L 14.550781 -6.214844 L 14.558594 -6.191406 C 15.054688 -6.398438 15.460938 -6.566406 16.046875 -6.8125 C 16.269531 -6.90625 16.175781 -7.132812 15.953125 -7.09375 Z M 2.617188 -5.644531 L 2.632812 -14.78125 C 2.628906 -15.175781 2.785156 -15.242188 3.082031 -14.96875 C 5.246094 -12.832031 7.433594 -10.703125 9.621094 -8.574219 Z M 2.617188 -5.644531 "/></g></g></g><g fill="#000000" fill-opacity="1"><g transform="translate(270.285718, 345.694808)"><g><path d="M 6.144531 -21.746094 L 2.542969 -19.539062 C 2.332031 -19.414062 2.503906 -19.085938 2.738281 -19.171875 C 3.488281 -19.492188 4.230469 -20.148438 4.878906 -19.140625 L 9.125 -12.207031 C 10.875 -9.355469 9.59375 -6.539062 7.429688 -5.210938 C 5.304688 -3.910156 2.316406 -4.023438 0.488281 -6.914062 L -3.722656 -13.78125 C -4.398438 -14.886719 -3.691406 -15.089844 -3.050781 -15.628906 C -2.886719 -15.785156 -3.078125 -16.097656 -3.285156 -15.96875 L -7.410156 -13.441406 C -7.636719 -13.300781 -7.445312 -12.988281 -7.210938 -13.074219 C -6.460938 -13.390625 -5.9375 -13.941406 -5.261719 -12.839844 L -1.054688 -5.96875 C 0.992188 -2.585938 4.722656 -2.523438 7.429688 -4.183594 C 10.117188 -5.828125 11.777344 -9.191406 9.6875 -12.550781 L 5.476562 -19.421875 C 4.800781 -20.523438 5.757812 -20.882812 6.378906 -21.40625 C 6.5625 -21.574219 6.371094 -21.886719 6.144531 -21.746094 Z M 6.144531 -21.746094 "/></g></g></g><g fill="#000000" fill-opacity="1"><g transform="translate(291.987183, 331.570761)"><g><path d="M 1.316406 -20.890625 C 1.253906 -20.964844 1.183594 -20.9375 1.105469 -20.875 L -9.191406 -12.296875 C -9.265625 -12.234375 -9.308594 -12.167969 -9.246094 -12.09375 L -7.527344 -9.839844 C -7.40625 -9.65625 -7.089844 -9.886719 -7.191406 -10.085938 C -8.207031 -11.878906 -8.496094 -12.148438 -6.339844 -13.945312 L -5.210938 -14.882812 C -4.761719 -15.257812 -4.277344 -15.4375 -3.730469 -14.78125 L 4.035156 -5.457031 C 4.863281 -4.460938 4.191406 -4.160156 3.632812 -3.535156 C 3.496094 -3.355469 3.730469 -3.074219 3.9375 -3.246094 L 7.632812 -6.324219 C 7.839844 -6.496094 7.605469 -6.777344 7.386719 -6.660156 C 6.6875 -6.238281 6.25 -5.617188 5.421875 -6.613281 L -2.34375 -15.9375 C -2.890625 -16.59375 -2.625 -17.035156 -2.15625 -17.425781 L -1.027344 -18.363281 C 1.128906 -20.160156 1.339844 -19.832031 2.917969 -18.507812 C 3.097656 -18.371094 3.382812 -18.640625 3.222656 -18.792969 Z M 1.316406 -20.890625 "/></g></g></g><g fill="#000000" fill-opacity="1"><g transform="translate(309.681006, 316.040758)"><g><path d="M -8.304688 -18.578125 C -8.273438 -17.886719 -7.796875 -16.855469 -7.511719 -15.796875 C -7.429688 -15.558594 -7.222656 -15.53125 -7.164062 -15.8125 C -6.9375 -16.890625 -6.585938 -17.960938 -6.613281 -18.652344 C -6.652344 -19.515625 -7.660156 -19.675781 -8.105469 -19.191406 C -8.238281 -19.046875 -8.300781 -18.835938 -8.304688 -18.578125 Z M 6.722656 -11.488281 C 7.648438 -10.148438 7.828125 -9.515625 6.113281 -7.644531 L 2.832031 -4.0625 C 2.449219 -3.71875 2.003906 -3.59375 1.464844 -4.089844 L -2.566406 -7.785156 L 0.714844 -11.367188 C 1.738281 -12.480469 2.546875 -12.207031 3.136719 -11.730469 C 3.332031 -11.582031 3.578125 -11.886719 3.398438 -12.054688 L 0.773438 -14.460938 C 0.574219 -14.644531 0.308594 -14.355469 0.472656 -14.171875 C 0.980469 -13.640625 1.34375 -12.84375 0.320312 -11.730469 L -2.960938 -8.148438 L -7.496094 -12.304688 C -8.128906 -12.882812 -7.921875 -13.359375 -7.511719 -13.808594 L -4.921875 -16.632812 C -3.203125 -18.503906 -2.378906 -18.574219 -0.960938 -17.773438 C -0.765625 -17.660156 -0.539062 -17.980469 -0.683594 -18.113281 L -2.671875 -19.738281 C -2.722656 -19.789062 -2.808594 -19.765625 -2.875 -19.695312 L -10.894531 -10.949219 C -11.074219 -10.75 -10.804688 -10.503906 -10.605469 -10.652344 C -9.953125 -11.144531 -9.636719 -11.816406 -8.683594 -10.941406 L 0.207031 -2.789062 C 1.144531 -1.933594 0.519531 -1.542969 0.0859375 -0.851562 C -0.0625 -0.652344 0.207031 -0.40625 0.386719 -0.605469 L 8.785156 -9.765625 C 8.835938 -9.816406 8.882812 -9.90625 8.8125 -9.972656 L 7.023438 -11.777344 C 6.859375 -11.925781 6.59375 -11.671875 6.722656 -11.488281 Z M 6.722656 -11.488281 "/></g></g></g><g fill="#000000" fill-opacity="1"><g transform="translate(324.51147, 299.135178)"><g><path d="M -3.359375 -22.203125 L -5.75 -18.71875 C -5.886719 -18.519531 -5.597656 -18.292969 -5.421875 -18.464844 C -4.863281 -19.058594 -4.480469 -19.921875 -3.492188 -19.332031 C -0.394531 -17.207031 2.648438 -15.121094 5.765625 -12.980469 C 6.027344 -12.800781 5.984375 -12.5625 5.632812 -12.566406 C 0.613281 -12.457031 -4.40625 -12.351562 -9.390625 -12.246094 C -9.96875 -12.226562 -10.253906 -12.15625 -10.667969 -11.554688 L -12.089844 -9.480469 C -12.226562 -9.277344 -11.941406 -9.050781 -11.761719 -9.226562 C -11.203125 -9.820312 -10.957031 -10.480469 -9.984375 -9.871094 L -0.0507812 -2.90625 C 1.039062 -2.160156 0.433594 -1.539062 0.0664062 -0.785156 C -0.03125 -0.554688 0.269531 -0.347656 0.421875 -0.570312 L 2.808594 -4.050781 C 2.949219 -4.253906 2.660156 -4.480469 2.480469 -4.308594 C 1.910156 -3.691406 1.570312 -2.890625 0.523438 -3.609375 L -9.332031 -10.222656 L 6.757812 -10.582031 C 7.125 -10.597656 7.355469 -10.675781 7.601562 -11.039062 C 7.769531 -11.28125 7.933594 -11.519531 8.085938 -11.742188 C 8.226562 -11.945312 8.179688 -12.09375 7.976562 -12.230469 L -3.019531 -19.808594 C -4.085938 -20.539062 -3.371094 -21.234375 -3.003906 -21.988281 C -2.90625 -22.214844 -3.207031 -22.425781 -3.359375 -22.203125 Z M -3.359375 -22.203125 "/></g></g></g><g fill="#000000" fill-opacity="1"><g transform="translate(338.474638, 277.56801)"><g><path d="M -7.296875 -19.617188 C -7.382812 -19.660156 -7.4375 -19.605469 -7.480469 -19.519531 L -13.398438 -7.492188 C -13.441406 -7.40625 -13.453125 -7.328125 -13.367188 -7.285156 L -10.878906 -5.925781 C -10.691406 -5.808594 -10.5 -6.148438 -10.675781 -6.289062 C -12.332031 -7.511719 -12.703125 -7.640625 -11.460938 -10.160156 L -10.816406 -11.472656 C -10.558594 -12 -10.1875 -12.363281 -9.421875 -11.984375 L 1.464844 -6.625 C 2.625 -6.054688 2.136719 -5.503906 1.882812 -4.707031 C 1.828125 -4.488281 2.15625 -4.328125 2.273438 -4.566406 L 4.398438 -8.882812 C 4.519531 -9.125 4.1875 -9.285156 4.039062 -9.085938 C 3.574219 -8.417969 3.425781 -7.675781 2.261719 -8.246094 L -8.625 -13.605469 C -9.390625 -13.984375 -9.328125 -14.496094 -9.058594 -15.042969 L -8.410156 -16.359375 C -7.171875 -18.878906 -6.84375 -18.660156 -4.863281 -18.09375 C -4.644531 -18.042969 -4.492188 -18.402344 -4.703125 -18.476562 Z M -7.296875 -19.617188 "/></g></g></g><g fill="#000000" fill-opacity="1"><g transform="translate(348.169371, 256.267106)"><g><path d="M 1.398438 -5.386719 C 0.980469 -4.65625 0.921875 -3.921875 -0.273438 -4.355469 L -11.617188 -8.449219 C -12.832031 -8.886719 -12.386719 -9.476562 -12.242188 -10.308594 C -12.207031 -10.554688 -12.558594 -10.65625 -12.640625 -10.425781 L -14.273438 -5.902344 C -14.363281 -5.648438 -14.019531 -5.527344 -13.890625 -5.738281 C -13.480469 -6.445312 -13.445312 -7.1875 -12.230469 -6.75 L -0.882812 -2.65625 C 0.308594 -2.222656 -0.113281 -1.625 -0.25 -0.816406 C -0.308594 -0.578125 0.0351562 -0.453125 0.125 -0.707031 L 1.757812 -5.230469 C 1.839844 -5.460938 1.503906 -5.609375 1.398438 -5.386719 Z M 1.398438 -5.386719 "/></g></g></g><g fill="#000000" fill-opacity="1"><g transform="translate(352.945261, 242.415801)"><g><path d="M 0.398438 -14.707031 C 1.433594 -13.5625 2.453125 -12.039062 1.675781 -8.761719 C -0.296875 -0.445312 -14.597656 -4.039062 -12.671875 -12.160156 C -12.488281 -12.945312 -12.179688 -13.925781 -11.738281 -14.625 C -10.660156 -16 -9.9375 -15.554688 -9.246094 -15.714844 C -8.6875 -15.859375 -8.40625 -16.195312 -8.328125 -16.527344 C -8.164062 -17.214844 -8.878906 -18.011719 -9.960938 -17.464844 C -10.5625 -17.15625 -11.683594 -16.015625 -11.984375 -15.386719 C -12.535156 -14.539062 -13.003906 -13.519531 -13.292969 -12.308594 C -15.875 -1.40625 -0.316406 2.285156 2.269531 -8.621094 C 2.949219 -11.496094 2.296875 -13.605469 1.027344 -15.339844 C 0.726562 -15.761719 0.28125 -15.589844 0.203125 -15.257812 C 0.171875 -15.113281 0.21875 -14.902344 0.398438 -14.707031 Z M 0.398438 -14.707031 "/></g></g></g><g fill="#000000" fill-opacity="1"><g transform="translate(358.05629, 218.499986)"><g><path d="M -14.898438 -10.152344 C -15.808594 1.039062 0.175781 2.339844 1.089844 -8.851562 C 2 -20.046875 -13.988281 -21.347656 -14.898438 -10.152344 Z M 0.601562 -8.890625 C -0.0976562 -0.300781 -15.113281 -1.5 -14.414062 -10.113281 C -13.710938 -18.753906 1.300781 -17.503906 0.601562 -8.890625 Z M -6.980469 -10.832031 C -7.125 -10.574219 -7.113281 -10.132812 -7.320312 -9.976562 C -7.507812 -9.796875 -7.914062 -9.878906 -8.191406 -9.804688 C -8.417969 -9.75 -8.433594 -9.554688 -8.222656 -9.4375 C -7.964844 -9.296875 -7.523438 -9.308594 -7.367188 -9.097656 C -7.1875 -8.914062 -7.269531 -8.503906 -7.191406 -8.226562 C -7.136719 -8.003906 -6.941406 -7.988281 -6.828125 -8.199219 C -6.683594 -8.457031 -6.699219 -8.898438 -6.488281 -9.050781 C -6.304688 -9.234375 -5.894531 -9.152344 -5.617188 -9.226562 C -5.394531 -9.28125 -5.375 -9.476562 -5.585938 -9.589844 C -5.84375 -9.734375 -6.289062 -9.722656 -6.441406 -9.929688 C -6.621094 -10.117188 -6.539062 -10.527344 -6.617188 -10.800781 C -6.671875 -11.027344 -6.867188 -11.042969 -6.980469 -10.832031 Z M -6.980469 -10.832031 "/></g></g></g><path stroke-linecap="round" transform="matrix(0.707493, -0.248905, 0.248905, 0.707493, 152.354702, 197.895001)" fill="none" stroke-linejoin="miter" d="M 1.997501 1.999578 L 120.742418 2.001765 " stroke="#000000" stroke-width="4" stroke-opacity="1" stroke-miterlimit="4"/><path stroke-linecap="round" transform="matrix(0.706055, -0.252956, 0.252956, 0.706055, 148.84577, 227.645464)" fill="none" stroke-linejoin="miter" d="M 2.002698 1.999719 L 115.596177 1.999382 " stroke="#000000" stroke-width="4" stroke-opacity="1" stroke-miterlimit="4"/><path stroke-linecap="round" transform="matrix(0.709486, -0.243164, 0.243164, 0.709486, 129.574772, 173.657463)" fill="none" stroke-linejoin="miter" d="M 2.000612 1.999839 L 115.342677 1.997387 " stroke="#000000" stroke-width="4" stroke-opacity="1" stroke-miterlimit="4"/></svg>