<svg xmlns="http://www.w3.org/2000/svg" xmlns:xlink="http://www.w3.org/1999/xlink" viewBox="0 0 437.86 433.29"><defs><style>.cls-1{fill:none;}.cls-2{isolation:isolate;}.cls-3{fill:#e9841f;}.cls-4{fill:#f2901e;}.cls-5{fill:#fcc448;}.cls-6{fill:#31b7ba;}.cls-7{fill:#e94160;}.cls-8{fill:#fcf4b0;}.cls-9{fill:#1a1916;}.cls-10{fill:#fff;}.cls-11{mix-blend-mode:multiply;}.cls-12{clip-path:url(#clip-path);}.cls-13{clip-path:url(#clip-path-2);}.cls-14{fill:#f8b133;}.cls-15{clip-path:url(#clip-path-3);}.cls-16{clip-path:url(#clip-path-4);}.cls-17{clip-path:url(#clip-path-5);}.cls-18{clip-path:url(#clip-path-6);}.cls-19{clip-path:url(#clip-path-7);}.cls-20{clip-path:url(#clip-path-8);}.cls-21{clip-path:url(#clip-path-9);}.cls-22{clip-path:url(#clip-path-10);}</style><clipPath id="clip-path"><rect class="cls-1" x="228.84" y="126.5" width="10.94" height="22.87" transform="translate(23.43 309.56) rotate(-69.63)"/></clipPath><clipPath id="clip-path-2"><rect class="cls-1" x="228.84" y="126.5" width="10.93" height="22.87" transform="translate(23.43 309.56) rotate(-69.63)"/></clipPath><clipPath id="clip-path-3"><rect class="cls-1" x="296.22" y="169.01" width="11.31" height="22.93" transform="translate(27.59 400.62) rotate(-69.63)"/></clipPath><clipPath id="clip-path-4"><rect class="cls-1" x="296.22" y="169.01" width="11.31" height="22.92" transform="translate(27.6 400.63) rotate(-69.63)"/></clipPath><clipPath id="clip-path-5"><rect class="cls-1" x="286.2" y="186.5" width="4.83" height="16.47" transform="translate(5.58 397.5) rotate(-69.63)"/></clipPath><clipPath id="clip-path-6"><rect class="cls-1" x="286.21" y="186.5" width="4.83" height="16.46" transform="translate(5.58 397.5) rotate(-69.63)"/></clipPath><clipPath id="clip-path-7"><rect class="cls-1" x="249.03" y="160.82" width="9.38" height="22.32" transform="translate(4.17 349.95) rotate(-69.63)"/></clipPath><clipPath id="clip-path-8"><rect class="cls-1" x="249.03" y="160.82" width="9.38" height="22.32" transform="translate(4.17 349.95) rotate(-69.63)"/></clipPath><clipPath id="clip-path-9"><rect class="cls-1" x="283.06" y="138.09" width="7.6" height="18.9" transform="matrix(0.35, -0.94, 0.94, 0.35, 48.68, 365.08)"/></clipPath><clipPath id="clip-path-10"><rect class="cls-1" x="283.06" y="138.09" width="7.6" height="18.89" transform="matrix(0.35, -0.94, 0.94, 0.35, 48.68, 365.08)"/></clipPath></defs><g class="cls-2"><g id="Capa_2" data-name="Capa 2"><g id="Capa_1-2" data-name="Capa 1"><path class="cls-3" d="M362.51,127.08s-1.41,10-19.2,16,.69-12.86.69-12.86,16.28-6.22,18.51-3.16"/><path class="cls-4" d="M339.41,115.29s13.35-5.18,18.67.17a28.13,28.13,0,0,1,6.85,12.27c-.26-1.31-7.23-.21-8.07,0-4.91,1-11.44,4.11-13.29,9.32-2.08,5.83-4.16-21.72-4.16-21.72"/><path class="cls-5" d="M209.46,210S103.78,222.92,100,238.76c.15,3.88,44.93-1,44.93-1S82.17,257,81.79,272.34c.38,3.19,29.66,1.08,48.31-7.23-1.23.18-82.92,43.92-82,51.88.15,3.89,44.56-6.67,44.56-6.67S7.06,357.06,9.17,374.5c1.06,5.45,25.35-3.8,44.06-17-.32.92-47.1,33.9-53.13,64.69-1.3,3.23,10.49,2.77,41.34-32.62.05.44-25.46,31.1-19.71,43.68,1.86,1.44,35.05-32.13,44.71-57.4,0,0-14.37,24.7-8.47,31.6s53.68-74.3,53.68-74.3-17.24,50.22-10.18,52.63,38.47-77.58,38.47-77.58-2.86,28.93,3.32,31,19.29-32.34,22.32-51.41c-1,.58-3.08,35.56,1.43,37.9s16.84-35.86,16-46.12c.62,1.61-1.28,24.43,3,25.08s28-62.66,35.78-78.76S209.46,210,209.46,210"/><path class="cls-6" d="M195.07,217.35A65.58,65.58,0,0,1,179.13,228c-18,8.51-57.72,28.15-56.94,34.74.42,3.4,31.55-8.61,31.55-8.61s-46.68,30.79-45.21,39.24c.84,3.35,29-12.56,29-12.56s-29.36,23.64-26.66,31.81c1.31,3.61,28.69-22.17,28.69-22.17S121.2,314,123.65,320.35s28-37.8,28-37.8-9.88,27-4.58,28.83S169,268.26,169,268.26s-2.08,31.94,1.45,31.4,48.64-103.8,48.64-103.8Z"/><path class="cls-7" d="M437,286.51c-8.72.42-43-28.67-40.26-25.78s40.3,33.87,29.72,33.39c-7.87-.34-23.46-10.77-31.06-16.27,8.68,7.83,20.4,24.22,14.89,24.72-12.32.82-30.48-22.22-30.94-22.81.34.77,15.07,32.05,8.83,30.41s-19.54-21.43-19.54-21.43,8,29.28.79,27.59-22.71-27.43-23.2-28.24c.33,1,11.71,33.66,4.28,32.31s-19.88-25.31-19.88-25.31,6.63,30,.5,27-14.83-26.89-14.83-26.89,4.88,29.79-.12,28.3-11.34-24.41-11.34-24.41,1.34,29.28-3.74,25.17-8.21-24.89-8.21-24.89-1.48,21.35-5.64,19.66-3.21-22.27-3.21-22.27-3.16,21.51-6.81,20.37-3.65-22.38-3.65-22.38-3.12,20.63-7.14,19.78-5.21-22.09-5.25-22.89c-.06.81-2.15,21.46-5.15,21.06s-5-21.63-5-21.63-.72,22.94-5.16,21.07c-4.11-1.71-3.3-20.27-3.24-24.07-.4,4-7,21.91-10.6,17.78-3.8-4.33.66-25.45.79-26-.29.7-10,25-13,20.65s1.76-23.16,1.76-23.16-21,17.65-22.37,12.91,13.08-22.2,13.08-22.2-17.82,15.38-18.64,11.2,12.87-19.11,13.35-19.66c-.61.38-17.22,10.59-17.91,7.08s12-16.38,12.43-16.79c-.55.24-16.51,7.81-17.23,5.17-.51-6,11.65-17.51,11.65-17.51s-20.15,10-21.73,7.31c-2.42-3.9,11.49-15.79,12.39-16.57-1.08.71-18.07,11.78-19.89,7.73s12.12-14.77,12.86-15.37c-1,.43-18,7.91-19.27,5.43-1.77-4.86,12-14.07,12-14.07s-26.56,2.36-28.34-.21,19.18-10.55,19.18-10.55S139,202.74,138,199.35s19.85-8.75,19.85-8.75-24.89,2.64-25.55-.81,20.73-9.27,20.73-9.27-24.71,3.6-25.51-.49,22.58-9.69,22.58-9.69-23,2.54-23.64-.92,20.49-8.9,20.49-8.9-25.38,1.79-26.49-2.25,25.72-11.68,25.72-11.68-29.43.72-28.62-3.42,29.58-8.29,29.58-8.29-34.67,1.88-31.94-4c1.61-3.45,12.15-4.79,20.46-5.31-10.67.08-25.45-.61-23.54-5.15,2.08-5,19.5-5.62,29.51-5.58-12-.41-35-1.9-34.29-7.31,1-7,32.52-7.13,34.71-7-16.75-2.81-31.85-7.43-33.19-9.25-.28-8.15,24-8.21,24.39-8.61-23.72-3.05-25.58-8.54-25.9-10.27,2.51-8.36,36.21-4,37-3.9-15.75-8.3-35.29-13.1-36.37-18.74,6.67-12,40.25,2.09,42.34,2.95C142,42.73,118.16,32.32,117,29.33c1.78-6.7,36.2,5.81,39.27,8C130.74,11,121.4-1.23,130,.1c44.84,14.69,81.39,63.42,101.68,97,6.09,10.1,10.73,18.84,13.69,24.86,12.7,26.06,25,20,35.79,12.33,9.59-8.53,19.87-17.1,31.29-23,1.21-.64,2.44-1.25,3.66-1.81,7.1-3.25,15.07-5.35,21.31-1.17a15.2,15.2,0,0,1,3.27,3c4.69,5.69,6.49,14.07,6,21.41A43.28,43.28,0,0,1,341,151.13a75.76,75.76,0,0,1-9.52,13.25c-15.5,17.5-6.49,22,20,41.52q2.91,1.68,6,3.74c34.77,22.78,87.75,76.45,79.54,76.87"/><path class="cls-6" d="M358.89,260.27c-9.09-1.42-23.05-21.24-23.48-21.86.36.9,12.85,32.42,1.51,32.44-7.7,0-10.36-29.17-10.36-29.17s-.9,35.25-6.53,32.68-9.24-33.5-9.24-33.5,3.19,40-4.42,36-6.48-32.65-6.46-33.56c-.12,1-4.31,35.92-9.47,33.2s-3.95-32.69-3.91-33.71c-.21,1-6.5,31.17-11.18,28.76s-2.34-35.2-2.25-36.24c-.2,1-6,31.47-11.37,27.94s-.34-27.36-.21-28c-.24.42-16.53,29.92-17.9,25s8.89-31.47,9.22-32.28c-.58.88-20.84,32.18-23.16,26.65s12.94-36.26,13.42-37.2c-.54.88-20,32-25,25.8s13.37-31.74,13.91-32.47c-.61.67-23.44,25.31-25.51,18.93S221.88,203,221.88,203s-25.27,22.36-28.55,16.51,20.94-22.23,21.77-22.78c-.89.53-26.13,15.75-28.77,8.58s16.48-16.82,16.48-16.82-30.18,10.27-31.48,3.49c-1.25-6.54,27-15.9,28.87-16.54-2.07.59-34.46,9.72-35.83,2.52-1.18-6.14,21.46-10.11,29.35-11.33-8.52,1.15-34.68,4.15-36.18-1.92-1.6-6.35,26.64-5.44,33.82-5.11-6.07-.36-27.07-2.1-28.25-8.19-1.34-7,25.45-5.95,26.28-5.91-.7-.1-22.89-3.22-24.19-5.51-1.91-5.62,19.49-4.58,20.14-4.54-.68-.15-22-5.2-23-10.17s18.87-4.45,19.71-4.42c-.74-.15-18.71-3.75-19.67-6.52.52-6.18,25.32-1.15,25.94-1-.53-.28-17.2-9.34-17.51-13.14.78-5,15.38-.51,27.59,4.16,8.92,3.43,16.53,7,16.53,7l117.6,90S343,219.06,351.1,235.07c6.83,13.55,12,25.86,7.79,25.2"/><path class="cls-5" d="M357.55,209.6c-2.06-1.36-4.1-2.61-6-3.74-3.88-2.86-7.37-5.38-10.48-7.68-18.09-13.41-22.72-18.9-9.51-33.83a75.5,75.5,0,0,0,9.54-13.26,43.15,43.15,0,0,0,5.72-18.38c.43-7.33-1.37-15.7-6.05-21.39a15.19,15.19,0,0,0-3.29-3c-6.24-4.19-14.18-2.08-21.29,1.17q-1.86.87-3.66,1.8c-11.42,5.91-21.71,14.47-31.31,23C270.48,142,258.14,148,245.41,122c-2.49-5.12-6.22-12.2-11-20.42-.87-1.46-1.75-3-2.65-4.43-8.81-6.21-24.12-16.06-25.53-10.79.1,2.82,11.1,19.86,11.1,19.86S196.63,91.1,195.87,96.09s13.72,17.31,14.1,17.62c-.45-.23-17.77-9.94-16.84-4.09s15,13.11,16,13.66c-1.3-.37-22.25-6.16-18.72-.77S212,138,212.55,138.33c-.6-.15-20.61-4.71-19.32-.25s19.5,12.24,20.15,12.53c-.68-.07-17.64-1.8-15.78,3.55s22.85,12.87,23.51,13.13c-.62-.07-19.49-1.23-17.46,3.93s21.17,3.12,21.17,3.12-15.44,6.53-13.65,11.38,22.44-3.2,22.9-3.37c-.33.34-12,13.06-8.14,18.88,2.92,3.2,14.89-12.85,15.39-13.51-.3.8-5.94,16.34-1,20.57,2,1.72,6.94-4,11.73-13.6,0,.89-4.28,15.63,2,23.66,1.3,1.22,6.64-10,7-18.41,0,.88-1.11,20,1.28,25.18a2.05,2.05,0,0,0,1,1.2c.49.23,1,0,1.61-.59,3.69-3.62,8.73-20.65,9.1-21.9-.22,1.28-3.57,21.22,0,23.59s6.64-19.69,6.77-20.55c-.05.8-.74,18.15,2.53,18.8s5.26-17.69,5.37-18.79c.08,1.18,1.23,22.3,6.52,23.87,3.67,1.17,2-22.11,2-22.11s3.21,20.09,9.93,22.74c2.38,1.29,1.57-10.24-1-19.09,2.81,7.42,9.06,20.86,19.09,22.23,1.19.37.54-10.19-4.36-22.65.39.72,12.41,23.69,17.9,22.65,1.73.06-4-19.68-7.14-22.69,1.35.35,12.66,21.25,19.07,20,3.19-.7-8.18-19.51-8.79-20.52.82,1,13.87,16.57,22.47,15.91,5.26-.4-.67-9.68-6.88-17.64m-53.06-2.17s0,.09.1.27a1.48,1.48,0,0,1-.1-.27"/><path class="cls-8" d="M346.71,132.76A43.38,43.38,0,0,1,341,151.13c-13.85,7.58-29,10.68-31.65.71-3.08-11.58,5.5-15.92,5.5-15.92a8.67,8.67,0,0,1-6.82-2.07c-4.4-5.39.49-15.91,4.39-22.53,1.21-.63,2.44-1.24,3.66-1.79,7.1-3.26,15.08-5.36,21.31-1.18a15.4,15.4,0,0,1,3.27,3c4.69,5.7,6.49,14.08,6,21.42"/><path class="cls-9" d="M336.46,124.48a3.76,3.76,0,0,1-2.82,4.36,3.46,3.46,0,0,1-4.17-2.79,3.75,3.75,0,0,1,2.81-4.34,3.47,3.47,0,0,1,4.18,2.77"/><path class="cls-10" d="M45.24,376.1l58.8-59a245.56,245.56,0,0,0-58.8,59"/><path class="cls-10" d="M71.4,383.4l27.75-49.12C89,350.19,76.84,365.31,71.4,383.4"/><path class="cls-10" d="M148.29,18.7l55.41,61a325.4,325.4,0,0,0-55.41-61"/><path class="cls-10" d="M145.52,43a13.35,13.35,0,0,0-3.46-2l40.55,37.91A181.49,181.49,0,0,0,145.52,43"/><path class="cls-10" d="M367.87,235.54l30.51,40.76c-9.78-14-16.91-30.65-30.51-40.76"/><path class="cls-10" d="M400.83,254.15c-1.53-1.7-3.07-3.38-4.59-5.08-7.22-8-14.54-16.09-23.36-22.17l31.61,31.39c-1.19-1.41-2.43-2.78-3.66-4.14"/><g class="cls-11"><g class="cls-12"><g class="cls-13"><path class="cls-14" d="M243.25,146.69c0,.09-.4.05-1.08-.1a4.47,4.47,0,0,1-1.24-.37,8.46,8.46,0,0,1-1.54-.8,8.35,8.35,0,0,1-2.93-3.51,11.09,11.09,0,0,1-.8-2.65c-.07-.46-.1-.95-.15-1.45,0-.25,0-.51,0-.74v-.18h0l-.08,0-.19,0-.7-.07c-.49-.08-.93-.19-1.39-.3a13.17,13.17,0,0,1-2.54-.93,10.15,10.15,0,0,1-3.57-2.84,8,8,0,0,1-1.45-2.71c-.19-.7-.18-1.14-.12-1.15s.24.34.55.95a12.21,12.21,0,0,0,1.68,2.34,10.42,10.42,0,0,0,3.43,2.37,12,12,0,0,0,2.33.77c.41.1.83.18,1.28.25s1.22.15,1.83.21l.28,0-.11.73c0,.13,0,.26,0,.39l0,.18c0,.21,0,.46,0,.68a8.05,8.05,0,0,0,.11,1.3,10.74,10.74,0,0,0,.61,2.39,8.64,8.64,0,0,0,2.43,3.27,13.62,13.62,0,0,0,1.3.88,7.16,7.16,0,0,0,1.1.56c.62.27,1,.46.94.55"/></g></g></g><g class="cls-11"><g class="cls-15"><g class="cls-16"><path class="cls-14" d="M310.9,189.07c0,.17-.45.21-1.16.14a5.8,5.8,0,0,1-1.31-.29,7.84,7.84,0,0,1-1.64-.76,8.52,8.52,0,0,1-3.18-3.59,10.37,10.37,0,0,1-.86-2.8,8.42,8.42,0,0,1-.16-1.52c0-.15,0-.27,0-.41h0l-.43-.06c-.49-.09-1-.22-1.44-.31a12.31,12.31,0,0,1-2.61-1,9.85,9.85,0,0,1-3.66-3.06,7.59,7.59,0,0,1-1.35-2.92c-.15-.76-.07-1.22.1-1.24.34-.11.9,1.36,2.57,3a11,11,0,0,0,3.33,2.15,13.22,13.22,0,0,0,2.23.7c.41.07.83.18,1.25.24l2.35.26.33,0c-.06.52-.11,1-.17,1.53a5.87,5.87,0,0,0,0,.7c0,.09,0,.2,0,.32,0,.4.05.82.1,1.22a10,10,0,0,0,.56,2.23,8.14,8.14,0,0,0,2.16,3.15,16.5,16.5,0,0,0,2.21,1.57c.58.34.92.6.86.78"/></g></g></g><g class="cls-11"><g class="cls-17"><g class="cls-18"><path class="cls-14" d="M294.74,198.11a5.26,5.26,0,0,1-.9-1.42,5.11,5.11,0,0,1-.33-1.66,2.06,2.06,0,0,0-1.51-1.6,14.12,14.12,0,0,0-2.34-.19,14.56,14.56,0,0,1-5.53-2.05c-1.4-.8-2.25-1.4-2.53-1.16s.18,1.29,1.43,2.59a10.79,10.79,0,0,0,6.29,3.16,5.36,5.36,0,0,0,1.06,0c.21,0,.82-.11,1,.05a.53.53,0,0,1,.11.24,4.92,4.92,0,0,0,.86,1.89,5.29,5.29,0,0,0,1.58,1.28c1,.46,1.63.46,1.73.24s-.3-.69-.89-1.38"/></g></g></g><g class="cls-11"><g class="cls-19"><g class="cls-20"><path class="cls-14" d="M246.37,166.15a7.31,7.31,0,0,0,2.22.5,7.42,7.42,0,0,0,2.24-.34,2.78,2.78,0,0,1,2.77,1.19,24.9,24.9,0,0,1,1.34,3,20.27,20.27,0,0,0,5.22,6.26c1.7,1.44,2.85,2.3,2.67,2.76s-1.73.39-3.95-.63a15,15,0,0,1-7-6.74,10.69,10.69,0,0,1-.54-1.36c-.11-.29-.23-1.14-.5-1.26a.63.63,0,0,0-.36,0,6.23,6.23,0,0,1-2.79-.22,6.89,6.89,0,0,1-2.39-1.46c-1-1-1.35-1.92-1.12-2.15s1,.08,2.17.51"/></g></g></g><g class="cls-11"><g class="cls-21"><g class="cls-22"><path class="cls-14" d="M280.53,142.93a5.83,5.83,0,0,0,1.94.35,7.16,7.16,0,0,0,1.95-.31,2.33,2.33,0,0,1,2.4.95,14.12,14.12,0,0,1,1.11,2.43,16.45,16.45,0,0,0,4.46,5.09c1.42,1.16,2.43,1.83,2.28,2.21s-1.52.35-3.45-.45a11.81,11.81,0,0,1-6-5.43,6.78,6.78,0,0,1-.44-1.13c-.1-.24-.18-.93-.43-1a.77.77,0,0,0-.3,0,5.17,5.17,0,0,1-4.49-1.28c-.91-.87-1.14-1.57-.94-1.78s.87.05,1.87.4"/></g></g></g></g></g></g></svg>